<svg width="36" height="37" viewBox="0 0 36 37" fill="none" xmlns="http://www.w3.org/2000/svg">
<path opacity="0.2" d="M32.6771 21.5445H21.9579C21.6097 21.5445 21.3273 21.8268 21.3273 22.175V32.8942C21.3273 34.6352 19.9157 36.0469 18.1746 36.0469C16.4336 36.0469 15.0219 34.6352 15.0219 32.8942V22.175C15.0219 21.8268 14.7396 21.5445 14.3914 21.5445H3.67223C1.93116 21.5445 0.519531 20.1328 0.519531 18.3918C0.519531 16.6507 1.93116 15.2391 3.67223 15.2391H14.3914C14.7396 15.2391 15.0219 14.9567 15.0219 14.6085V3.88934C15.0219 2.14828 16.4336 0.736645 18.1746 0.736645C19.9157 0.736645 21.3273 2.14828 21.3273 3.88934V14.6085C21.3273 14.9567 21.6097 15.2391 21.9579 15.2391H32.6771C34.4181 15.2391 35.8298 16.6507 35.8298 18.3918C35.8298 20.1328 34.4181 21.5445 32.6771 21.5445Z" fill="white"/>
</svg>
