<svg fill="none" height="18" viewBox="0 0 21 18" width="21" xmlns="http://www.w3.org/2000/svg"><g clip-rule="evenodd" fill="#888c92" fill-rule="evenodd"><path d="m19.2549.231804c.4243.353564.4816.984126.1281 1.408406l-5 6c-.3408.40899-.9423.47924-1.3682.15982l-3.25814-2.44358-6.38932 7.30205c-.36369.4157-.99545.4578-1.41108.0941-.41564-.3637-.45776-.9954-.09408-1.4111l7-7.99998c.34446-.39367.93411-.45535 1.35262-.14149l3.2399 2.42998 4.3918-5.270169c.3536-.4242773.9842-.481601 1.4084-.128037z"/><path d="m.614746 17c0-.5523.447714-1 1.000004-1h17.99995c.5523 0 1 .4477 1 1s-.4477 1-1 1h-17.99995c-.55229 0-1.000004-.4477-1.000004-1z"/></g></svg>