<svg width="31" height="31" viewBox="0 0 31 31" fill="none" xmlns="http://www.w3.org/2000/svg">
<g opacity="0.8">
<path d="M15.4701 19.4883L17.3818 21.4L23.1169 15.6649L17.3818 9.92978L15.4701 11.8415L17.9417 14.3131L7.75313 14.3131L7.75313 17.0167L17.9417 17.0167L15.4701 19.4883Z" fill="white"/>
<path fill-rule="evenodd" clip-rule="evenodd" d="M5.97257 0.760254C2.98629 0.760254 0.56543 3.18111 0.56543 6.16739L0.56543 25.0924C0.56543 28.0787 2.98629 30.4995 5.97257 30.4995L24.8975 30.4995C27.8838 30.4995 30.3047 28.0787 30.3047 25.0924L30.3047 6.16739C30.3047 3.18111 27.8838 0.760254 24.8975 0.760254L5.97257 0.760254ZM3.269 6.16739L3.269 25.0924C3.269 26.5855 4.47943 27.7959 5.97257 27.7959L24.8975 27.7959C26.3907 27.7959 27.6011 26.5855 27.6011 25.0924L27.6011 6.16739C27.6011 4.67425 26.3907 3.46382 24.8975 3.46382L5.97257 3.46382C4.47943 3.46382 3.269 4.67425 3.269 6.16739Z" fill="white"/>
</g>
</svg>
