<svg fill="none" height="15" viewBox="0 0 17 15" width="17" xmlns="http://www.w3.org/2000/svg"><path d="m16.3655 12.9244-7.18156-12.401734c-.18153-.313433-.50735-.5050879-.8589-.5050879-.35151 0-.67739.1916219-.85888.5050879l-7.181477 12.401734c-.1867722.3226-.1923031.7249-.014419 1.0529.177884.328.51156.5308.873276.5308h14.36306c.3617 0 .6953-.2029.8733-.5308.1778-.328.1723-.7303-.0144-1.0529zm-8.03511-8.6169c.41249 0 .76148.24229.76148.67174 0 1.31043-.14806 3.19355-.14806 4.50398 0 .34144-.35954.48453-.61342.48453-.33836 0-.62391-.14318-.62391-.48453 0-1.31043-.14803-3.19355-.14803-4.50398 0-.42945.33838-.67174.77194-.67174zm.01064 8.116c-.46533 0-.81436-.3964-.81436-.8479 0-.4626.349-.8479.81436-.8479.43353 0 .80371.3853.80371.8479 0 .4515-.37018.8479-.80371.8479z" fill="#ffc738"/></svg>