<svg width="56" height="55" viewBox="0 0 56 55" fill="none" xmlns="http://www.w3.org/2000/svg">
<path d="M53.6838 36.3468C50.6455 48.534 38.3018 55.9509 26.1132 52.9118C13.9296 49.8735 6.51274 37.5291 9.5524 25.3429C12.5894 13.1543 24.933 5.7369 37.1179 8.77522C49.3056 11.8135 56.7221 24.1593 53.6834 36.3471L53.6837 36.3468H53.6838Z" stroke="url(#paint0_linear)" stroke-width="2"/>
<path d="M35.8967 29.0844L31.6164 24.8032L27.3335 29.0853L24.8429 26.5947L31.6164 19.822L38.3873 26.5929L35.8967 29.0844ZM42.6367 30.8423L40.1461 28.3517L37.6555 30.8423L40.1461 33.3329L42.6367 30.8423ZM35.8967 32.6021L31.6164 36.8823L27.3344 32.6003L24.8429 35.09L24.8438 35.0918L31.6164 41.8644L38.3908 35.0882L35.8967 32.6021ZM25.5773 30.8441L23.0867 28.3535L20.5961 30.8441L23.0867 33.3347L25.5773 30.8441Z" fill="#9C9DA9"/>
<path d="M29.0902 30.8411H29.0893L31.616 28.3135L33.4842 30.1808L33.6984 30.3959L34.141 30.8385L34.1445 30.842L34.141 30.8455L31.616 33.3714L29.0884 30.8437L29.0875 30.842L29.0902 30.8411Z" fill="#9C9DA9"/>
<mask id="path-4-outside-1" maskUnits="userSpaceOnUse" x="-0.171875" y="0.425781" width="25" height="25" fill="black">
<rect fill="white" x="-0.171875" y="0.425781" width="25" height="25"/>
<path d="M2.08558 15.503C2.08556 15.503 2.08555 15.5031 2.08555 15.5031C3.49192 21.1442 9.20546 24.5772 14.8472 23.1705C20.4867 21.7642 23.9197 16.0503 22.5128 10.4096C21.107 4.76785 15.3935 1.33452 9.75344 2.74087C4.1121 4.14722 0.679237 9.86167 2.08566 15.503C2.08567 15.503 2.08563 15.5031 2.0856 15.503L2.0856 15.503C2.0856 15.503 2.08559 15.503 2.08558 15.503Z"/>
</mask>
<path d="M2.08558 15.503C2.08556 15.503 2.08555 15.5031 2.08555 15.5031C3.49192 21.1442 9.20546 24.5772 14.8472 23.1705C20.4867 21.7642 23.9197 16.0503 22.5128 10.4096C21.107 4.76785 15.3935 1.33452 9.75344 2.74087C4.1121 4.14722 0.679237 9.86167 2.08566 15.503C2.08567 15.503 2.08563 15.5031 2.0856 15.503L2.0856 15.503C2.0856 15.503 2.08559 15.503 2.08558 15.503Z" fill="#0D121B"/>
<path d="M2.08558 15.503C2.08556 15.503 2.08555 15.5031 2.08555 15.5031C3.49192 21.1442 9.20546 24.5772 14.8472 23.1705C20.4867 21.7642 23.9197 16.0503 22.5128 10.4096C21.107 4.76785 15.3935 1.33452 9.75344 2.74087C4.1121 4.14722 0.679237 9.86167 2.08566 15.503C2.08567 15.503 2.08563 15.5031 2.0856 15.503L2.0856 15.503C2.0856 15.503 2.08559 15.503 2.08558 15.503Z" fill="black" fill-opacity="0.2"/>
<path d="M14.8472 23.1705L15.2247 24.6841L15.2246 24.6841L14.8472 23.1705ZM22.5128 10.4096L20.9992 10.7871L20.9992 10.7867L22.5128 10.4096ZM9.75344 2.74087L10.1308 4.25443L10.1308 4.25445L9.75344 2.74087ZM2.08566 15.503L0.572096 15.8804L2.08566 15.503ZM2.0856 15.503L0.982592 16.6061L2.0856 15.503ZM2.0856 15.503L0.98259 16.6061L2.0856 15.503ZM2.08555 15.5031L0.571983 15.8804L2.08555 15.5031ZM3.59912 15.1257C4.79707 19.9308 9.66393 22.8553 14.4698 21.657L15.2246 24.6841C8.74698 26.2992 2.18678 22.3575 0.571983 15.8804L3.59912 15.1257ZM14.4698 21.657C19.2732 20.4591 22.1977 15.5919 20.9992 10.7871L24.0263 10.0321C25.6418 16.5086 21.7001 23.0692 15.2247 24.6841L14.4698 21.657ZM20.9992 10.7867C19.8017 5.98095 14.9348 3.05655 10.1308 4.25443L9.37603 1.22732C15.8522 -0.387519 22.4124 3.55475 24.0264 10.0325L20.9992 10.7867ZM10.1308 4.25445C5.32557 5.45235 2.40115 10.32 3.59923 15.1257L0.572096 15.8804C-1.04268 9.40329 2.89863 2.84209 9.37612 1.2273L10.1308 4.25445ZM0.982592 16.6061L0.98259 16.6061L3.18862 14.4V14.4L0.982592 16.6061ZM3.59923 15.1257C3.78651 15.8769 3.3976 16.5381 2.88236 16.8441C2.35749 17.156 1.55613 17.1796 0.982592 16.6061L3.18862 14.4C2.6151 13.8265 1.81378 13.8502 1.28893 14.162C0.773724 14.468 0.384829 15.1292 0.572096 15.8804L3.59923 15.1257ZM0.98259 16.6061C1.27512 16.8986 1.67188 17.0629 2.08558 17.0629V13.9431C2.4993 13.9431 2.89607 14.1075 3.18862 14.4L0.98259 16.6061ZM0.571983 15.8804C0.330671 14.9125 1.05435 13.9431 2.08558 13.9431V17.0629C3.11677 17.0629 3.84042 16.0936 3.59912 15.1257L0.571983 15.8804Z" fill="#1F2534" mask="url(#path-4-outside-1)"/>
<g filter="url(#filter0_d)">
<path d="M8.70147 17.4778H16.1958V15.3187H12.3094V15.2619L16.0594 10.4891V8.75051H8.84352V10.9096H12.7469V10.9664L8.70147 15.8926V17.4778Z" fill="url(#paint1_linear)"/>
</g>
<defs>
<filter id="filter0_d" x="4.70312" y="8.75049" width="15.4943" height="16.7273" filterUnits="userSpaceOnUse" color-interpolation-filters="sRGB">
<feFlood flood-opacity="0" result="BackgroundImageFix"/>
<feColorMatrix in="SourceAlpha" type="matrix" values="0 0 0 0 0 0 0 0 0 0 0 0 0 0 0 0 0 0 127 0" result="hardAlpha"/>
<feOffset dy="4"/>
<feGaussianBlur stdDeviation="2"/>
<feColorMatrix type="matrix" values="0 0 0 0 0 0 0 0 0 0 0 0 0 0 0 0 0 0 0.25 0"/>
<feBlend mode="normal" in2="BackgroundImageFix" result="effect1_dropShadow"/>
<feBlend mode="normal" in="SourceGraphic" in2="effect1_dropShadow" result="shape"/>
</filter>
<linearGradient id="paint0_linear" x1="8.87109" y1="8.09448" x2="54.2756" y2="10.102" gradientUnits="userSpaceOnUse">
<stop stop-color="#FFDFBD"/>
<stop offset="1" stop-color="#D0A7A8"/>
</linearGradient>
<linearGradient id="paint1_linear" x1="3.66016" y1="5.47778" x2="21.1741" y2="6.61905" gradientUnits="userSpaceOnUse">
<stop stop-color="#FFDFBD"/>
<stop offset="1" stop-color="#D0A7A8"/>
</linearGradient>
</defs>
</svg>
