<svg width="48" height="47" viewBox="0 0 48 47" fill="none" xmlns="http://www.w3.org/2000/svg">
<path d="M46.3649 30.5417C43.7749 40.9307 33.2525 47.2533 22.8622 44.6626C12.4762 42.0726 6.15367 31.5495 8.74485 21.1613C11.3337 10.7711 21.8562 4.44802 32.2432 7.03806C42.6328 9.6281 48.955 20.1523 46.3647 30.5419L46.3648 30.5417H46.3649Z" stroke="url(#paint0_linear)" stroke-width="1.70491"/>
<path d="M34.0158 24.2621C34.2921 22.4154 32.8861 21.4227 30.9635 20.7605L31.5872 18.2589L30.0644 17.8795L29.4573 20.3152C29.0569 20.2153 28.6458 20.1213 28.2372 20.028L28.8488 17.5762L27.3269 17.1968L26.7029 19.6975C26.3716 19.6221 26.0463 19.5476 25.7306 19.469L25.7323 19.4611L23.6324 18.9367L23.2273 20.5632C23.2273 20.5632 24.3571 20.8221 24.3333 20.8381C24.9499 20.992 25.0614 21.4002 25.0429 21.7237L24.3325 24.5736C24.3749 24.5844 24.43 24.6 24.4908 24.6244C24.44 24.6118 24.3859 24.598 24.3298 24.5846L23.334 28.5769C23.2587 28.7642 23.0674 29.0454 22.6362 28.9386C22.6515 28.9607 21.5295 28.6624 21.5295 28.6624L20.7734 30.4055L22.7551 30.8995C23.1237 30.9919 23.485 31.0887 23.8408 31.1796L23.2106 33.7099L24.7316 34.0893L25.3557 31.5859C25.7712 31.6987 26.1745 31.8028 26.5692 31.9009L25.9473 34.3924L27.4701 34.7719L28.1002 32.2464C30.6969 32.7378 32.6493 32.5397 33.4712 30.191C34.1334 28.3 33.4382 27.2093 32.0721 26.4981C33.0671 26.2686 33.8166 25.6142 34.0164 24.2623L34.0159 24.262L34.0158 24.2621ZM30.5367 29.1409C30.0661 31.0318 26.8823 30.0096 25.85 29.7533L26.6862 26.4011C27.7184 26.6588 31.0285 27.1688 30.5367 29.1409H30.5367ZM31.0076 24.2347C30.5783 25.9548 27.9284 25.0809 27.0688 24.8666L27.8269 21.8264C28.6865 22.0407 31.4548 22.4406 31.0077 24.2347H31.0076Z" fill="#9C9DA9"/>
<mask id="path-3-outside-1" maskUnits="userSpaceOnUse" x="0.0585938" y="-0.243164" width="22" height="22" fill="black">
<rect fill="white" x="0.0585938" y="-0.243164" width="22" height="22"/>
<path d="M2.37647 12.9046C2.37645 12.9046 2.37644 12.9046 2.37644 12.9047C3.57531 17.7135 8.44585 20.64 13.2552 19.4408C18.0626 18.242 20.9891 13.3711 19.7898 8.5627C18.5914 3.75335 13.7209 0.826581 8.91299 2.02544C4.10399 3.22429 1.17762 8.09561 2.37654 12.9046C2.37654 12.9046 2.37651 12.9047 2.37649 12.9046L2.37648 12.9046C2.37648 12.9046 2.37647 12.9046 2.37647 12.9046Z"/>
</mask>
<path d="M2.37647 12.9046C2.37645 12.9046 2.37644 12.9046 2.37644 12.9047C3.57531 17.7135 8.44585 20.64 13.2552 19.4408C18.0626 18.242 20.9891 13.3711 19.7898 8.5627C18.5914 3.75335 13.7209 0.826581 8.91299 2.02544C4.10399 3.22429 1.17762 8.09561 2.37654 12.9046C2.37654 12.9046 2.37651 12.9047 2.37649 12.9046L2.37648 12.9046C2.37648 12.9046 2.37647 12.9046 2.37647 12.9046Z" fill="#0D121B"/>
<path d="M2.37647 12.9046C2.37645 12.9046 2.37644 12.9046 2.37644 12.9047C3.57531 17.7135 8.44585 20.64 13.2552 19.4408C18.0626 18.242 20.9891 13.3711 19.7898 8.5627C18.5914 3.75335 13.7209 0.826581 8.91299 2.02544C4.10399 3.22429 1.17762 8.09561 2.37654 12.9046C2.37654 12.9046 2.37651 12.9047 2.37649 12.9046L2.37648 12.9046C2.37648 12.9046 2.37647 12.9046 2.37647 12.9046Z" fill="black" fill-opacity="0.2"/>
<path d="M13.2552 19.4408L13.577 20.7311L13.5769 20.7311L13.2552 19.4408ZM19.7898 8.5627L18.4996 8.88452L18.4995 8.88419L19.7898 8.5627ZM8.91299 2.02544L9.23471 3.31568L9.23464 3.31569L8.91299 2.02544ZM2.37654 12.9046L3.66679 12.5829L2.37654 12.9046ZM2.37649 12.9046L1.43621 13.8449L2.37649 12.9046ZM2.37648 12.9046L1.43621 13.8449L2.37648 12.9046ZM2.37644 12.9047L3.66669 12.583L2.37644 12.9047ZM3.66669 12.583C4.68789 16.6791 8.83668 19.1721 12.9335 18.1506L13.5769 20.7311C8.05503 22.1079 2.46273 18.7478 1.08619 13.2263L3.66669 12.583ZM12.9335 18.1506C17.0282 17.1295 19.5212 12.9804 18.4996 8.88452L21.08 8.24087C22.4571 13.7619 19.097 19.3545 13.577 20.7311L12.9335 18.1506ZM18.4995 8.88419C17.4787 4.78747 13.3299 2.29454 9.23471 3.31568L8.59126 0.735202C14.1119 -0.641381 19.7042 2.71923 21.0801 8.2412L18.4995 8.88419ZM9.23464 3.31569C5.13841 4.33685 2.64548 8.48635 3.66679 12.5829L1.08629 13.2263C-0.290241 7.70487 3.06956 2.11172 8.59133 0.735184L9.23464 3.31569ZM1.43621 13.8449L1.43621 13.8449L3.31676 11.9644L3.31676 11.9644L1.43621 13.8449ZM3.66679 12.5829C3.82643 13.2233 3.4949 13.7869 3.05569 14.0479C2.60826 14.3137 1.92513 14.3338 1.43621 13.8449L3.31676 11.9644C2.82786 11.4755 2.14477 11.4956 1.69736 11.7614C1.25817 12.0223 0.926649 12.586 1.08629 13.2263L3.66679 12.5829ZM1.43621 13.8449C1.68558 14.0943 2.0238 14.2344 2.37647 14.2344V11.5749C2.72914 11.5749 3.06738 11.715 3.31676 11.9644L1.43621 13.8449ZM1.08619 13.2263C0.880482 12.4012 1.49739 11.5749 2.37647 11.5749V14.2344C3.25551 14.2344 3.87239 13.4081 3.66669 12.583L1.08619 13.2263Z" fill="#1F2534" mask="url(#path-3-outside-1)"/>
<g filter="url(#filter0_d)">
<path d="M8.01625 14.3585H14.4048V12.518H11.0919V12.4696L14.2886 8.40101V6.9189H8.13734V8.75943H11.4648V8.80786L8.01625 13.0072V14.3585Z" fill="url(#paint1_linear)"/>
</g>
<defs>
<filter id="filter0_d" x="4.6058" y="6.91895" width="13.2082" height="14.2593" filterUnits="userSpaceOnUse" color-interpolation-filters="sRGB">
<feFlood flood-opacity="0" result="BackgroundImageFix"/>
<feColorMatrix in="SourceAlpha" type="matrix" values="0 0 0 0 0 0 0 0 0 0 0 0 0 0 0 0 0 0 127 0" result="hardAlpha"/>
<feOffset dy="3.40983"/>
<feGaussianBlur stdDeviation="1.70491"/>
<feColorMatrix type="matrix" values="0 0 0 0 0 0 0 0 0 0 0 0 0 0 0 0 0 0 0.25 0"/>
<feBlend mode="normal" in2="BackgroundImageFix" result="effect1_dropShadow"/>
<feBlend mode="normal" in="SourceGraphic" in2="effect1_dropShadow" result="shape"/>
</filter>
<linearGradient id="paint0_linear" x1="8.16406" y1="6.45776" x2="46.8695" y2="8.16904" gradientUnits="userSpaceOnUse">
<stop stop-color="#FFDFBD"/>
<stop offset="1" stop-color="#D0A7A8"/>
</linearGradient>
<linearGradient id="paint1_linear" x1="3.71875" y1="4.35852" x2="18.6486" y2="5.3314" gradientUnits="userSpaceOnUse">
<stop stop-color="#FFDFBD"/>
<stop offset="1" stop-color="#D0A7A8"/>
</linearGradient>
</defs>
</svg>
