<svg width="25" height="18" viewBox="0 0 25 18" fill="none" xmlns="http://www.w3.org/2000/svg">
<g filter="url(#filter0_b_3839_1166)">
<path d="M20.9398 2.88572C20.9398 2.88572 18.4882 0.967088 15.6102 0.753906L15.397 1.28686C18.0618 1.92641 19.2343 2.77913 20.4068 3.95163C18.275 2.88572 16.1432 1.81981 12.4125 1.81981C8.57522 1.81981 6.55 2.88572 4.41818 3.95163C5.69727 2.88572 7.08295 1.81981 9.42795 1.28686L9.21477 0.753906C6.23022 1.07368 3.88522 2.88572 3.88522 2.88572C3.88522 2.88572 1.22045 6.82958 0.6875 14.6107C3.45886 17.7018 7.6159 17.8084 7.6159 17.8084L8.46863 16.6359C7.08295 16.103 5.3775 15.1437 3.88522 13.5448C5.59068 14.8239 8.25545 16.2096 12.4125 16.2096C16.5695 16.2096 19.2343 14.8239 20.9398 13.5448C19.4475 15.2503 17.8486 16.103 16.3564 16.6359L17.2091 17.8084C17.2091 17.8084 21.3661 17.8084 24.1375 14.6107C23.6045 6.82958 20.9398 2.88572 20.9398 2.88572ZM8.89499 12.4789C7.82909 12.4789 6.97636 11.5196 6.97636 10.3471C6.97636 9.17458 7.82909 8.21526 8.89499 8.21526C9.9609 8.21526 10.8136 9.17458 10.8136 10.3471C10.8136 11.5196 9.9609 12.4789 8.89499 12.4789ZM15.93 12.4789C14.8641 12.4789 14.0114 11.5196 14.0114 10.3471C14.0114 9.17458 14.8641 8.21526 15.93 8.21526C16.9959 8.21526 17.8486 9.17458 17.8486 10.3471C17.742 11.5196 16.8893 12.4789 15.93 12.4789Z" fill="#3F537A"/>
</g>
<defs>
<filter id="filter0_b_3839_1166" x="-79.3125" y="-79.2461" width="183.453" height="177.055" filterUnits="userSpaceOnUse" color-interpolation-filters="sRGB">
<feFlood flood-opacity="0" result="BackgroundImageFix"/>
<feGaussianBlur in="BackgroundImage" stdDeviation="40"/>
<feComposite in2="SourceAlpha" operator="in" result="effect1_backgroundBlur_3839_1166"/>
<feBlend mode="normal" in="SourceGraphic" in2="effect1_backgroundBlur_3839_1166" result="shape"/>
</filter>
</defs>
</svg>
