<svg width="22" height="16" viewBox="0 0 22 16" fill="none" xmlns="http://www.w3.org/2000/svg">
<path d="M19 2C19 2 16.7 0.2 14 0L13.8 0.5C16.3 1.1 17.4 1.9 18.5 3C16.5 2 14.5 1 11 1C7.4 1 5.5 2 3.5 3C4.7 2 6 1 8.2 0.5L8 0C5.2 0.3 3 2 3 2C3 2 0.5 5.7 0 13C2.6 15.9 6.5 16 6.5 16L7.3 14.9C6 14.4 4.4 13.5 3 12C4.6 13.2 7.1 14.5 11 14.5C14.9 14.5 17.4 13.2 19 12C17.6 13.6 16.1 14.4 14.7 14.9L15.5 16C15.5 16 19.4 16 22 13C21.5 5.7 19 2 19 2ZM7.7 11C6.7 11 5.9 10.1 5.9 9C5.9 7.9 6.7 7 7.7 7C8.7 7 9.5 7.9 9.5 9C9.5 10.1 8.7 11 7.7 11ZM14.3 11C13.3 11 12.5 10.1 12.5 9C12.5 7.9 13.3 7 14.3 7C15.3 7 16.1 7.9 16.1 9C16 10.1 15.2 11 14.3 11Z" fill="#9EA2AB"/>
</svg>
