<svg fill="none" height="17" viewBox="0 0 23 17" width="23" xmlns="http://www.w3.org/2000/svg"><path d="m19.5 2.74121s-2.3-1.799999-5-1.999999l-.2.499999c2.5.6 3.6 1.4 4.7 2.5-2-1-4-2-7.5-2-3.6 0-5.5 1-7.5 2 1.2-1 2.5-2 4.7-2.5l-.2-.499999c-2.8.299999-5 1.999999-5 1.999999s-2.5 3.7-3 10.99999c2.6 2.9 6.5 3 6.5 3l.8-1.1c-1.3-.5-2.9-1.4-4.3-2.9 1.6 1.2 4.1 2.5 8 2.5s6.4-1.3 8-2.5c-1.4 1.6-2.9 2.4-4.3 2.9l.8 1.1s3.9 0 6.5-3c-.5-7.29999-3-10.99999-3-10.99999zm-11.3 8.99999c-1 0-1.8-.9-1.8-1.99999 0-1.1.8-2 1.8-2s1.8.9 1.8 2c0 1.09999-.8 1.99999-1.8 1.99999zm6.6 0c-1 0-1.8-.9-1.8-1.99999 0-1.1.8-2 1.8-2s1.8.9 1.8 2c-.1 1.09999-.9 1.99999-1.8 1.99999z" fill="#9ea2ab"/></svg>