<svg width="25" height="25" viewBox="0 0 25 25" fill="none" xmlns="http://www.w3.org/2000/svg">
<path fill-rule="evenodd" clip-rule="evenodd" d="M4.47217 4.63672C4.47217 3.53215 5.3676 2.63672 6.47217 2.63672H16.8864L20.4722 6.22251V20.6367C20.4722 21.7413 19.5767 22.6367 18.4722 22.6367H6.47217C5.3676 22.6367 4.47217 21.7413 4.47217 20.6367V4.63672ZM16.058 4.63672L6.47217 4.63672V20.6367H18.4722V7.05093L16.058 4.63672Z" fill="#888C92"/>
<path fill-rule="evenodd" clip-rule="evenodd" d="M14.4722 3.63672H16.4722V6.63672H19.4722V8.63672H14.4722V3.63672Z" fill="#888C92"/>
<path fill-rule="evenodd" clip-rule="evenodd" d="M8.47217 15.6367C8.47217 15.0844 8.91988 14.6367 9.47217 14.6367H13.4722C14.0245 14.6367 14.4722 15.0844 14.4722 15.6367C14.4722 16.189 14.0245 16.6367 13.4722 16.6367H9.47217C8.91988 16.6367 8.47217 16.189 8.47217 15.6367Z" fill="#888C92"/>
<path fill-rule="evenodd" clip-rule="evenodd" d="M8.47217 11.6367C8.47217 11.0844 8.91988 10.6367 9.47217 10.6367H15.4722C16.0245 10.6367 16.4722 11.0844 16.4722 11.6367C16.4722 12.189 16.0245 12.6367 15.4722 12.6367H9.47217C8.91988 12.6367 8.47217 12.189 8.47217 11.6367Z" fill="#888C92"/>
</svg>
