<svg fill="none" height="25" viewBox="0 0 25 25" width="25" xmlns="http://www.w3.org/2000/svg"><g clip-rule="evenodd" fill="#888c92" fill-rule="evenodd"><path d="m4.47217 4.63672c0-1.10457.89543-2 2-2h10.41423l3.5858 3.58579v14.41419c0 1.1046-.8955 2-2 2h-12.00003c-1.10457 0-2-.8954-2-2zm11.58583 0h-9.58583v15.99998h12.00003v-13.58577z"/><path d="m14.4722 3.63672h2v3h3v2h-5z"/><path d="m8.47217 15.6367c0-.5523.44771-1 1-1h4.00003c.5523 0 1 .4477 1 1s-.4477 1-1 1h-4.00003c-.55229 0-1-.4477-1-1z"/><path d="m8.47217 11.6367c0-.5523.44771-1 1-1h6.00003c.5523 0 1 .4477 1 1s-.4477 1-1 1h-6.00003c-.55229 0-1-.4477-1-1z"/></g></svg>