<svg width="48" height="44" viewBox="0 0 48 44" fill="none" xmlns="http://www.w3.org/2000/svg">
<path d="M12.0695 29.5568C14.432 39.033 24.0299 44.8001 33.5073 42.437C42.9807 40.0745 48.7478 30.476 46.3843 21.0005C44.0229 11.5232 34.4249 5.7557 24.9505 8.11818C15.4738 10.4807 9.70705 20.0802 12.0698 29.5569L12.0696 29.5568H12.0695Z" fill="#1F2534"/>
<path d="M12.0695 29.5568C14.432 39.033 24.0299 44.8001 33.5073 42.437C42.9807 40.0745 48.7478 30.476 46.3843 21.0005C44.0229 11.5232 34.4249 5.7557 24.9505 8.11818C15.4738 10.4807 9.70705 20.0802 12.0698 29.5569L12.0696 29.5568H12.0695Z" stroke="url(#paint0_linear)" stroke-width="1.70491"/>
<path d="M29.241 13.0333L29.4062 13.5945V29.8766L29.241 30.0414L21.6832 25.5739L29.241 13.0333Z" fill="#9C9DA9"/>
<path d="M29.2467 13.0333L36.8047 25.5739L29.2467 30.0414V22.1385V13.0333Z" fill="#9C9DA9"/>
<path d="M29.2428 31.4694L29.3359 31.583V37.3829L29.2428 37.6547L21.6804 27.0043L29.2428 31.4694Z" fill="#9C9DA9"/>
<path d="M29.2467 37.6547V31.4694L36.8047 27.0043L29.2467 37.6547Z" fill="#9C9DA9"/>
<path d="M29.2461 30.039L21.6883 25.5715L29.2461 22.1361V30.039Z" fill="#9C9DA9"/>
<path d="M36.8047 25.5715L29.2467 30.039V22.1361L36.8047 25.5715Z" fill="#9C9DA9"/>
<mask id="path-9-outside-1" maskUnits="userSpaceOnUse" x="0.0585938" y="0.0334473" width="22" height="22" fill="black">
<rect fill="white" x="0.0585938" y="0.0334473" width="22" height="22"/>
<path d="M2.37647 13.1812C2.37645 13.1812 2.37644 13.1813 2.37644 13.1813C3.57531 17.9901 8.44585 20.9166 13.2552 19.7174C18.0626 18.5186 20.9891 13.6477 19.7898 8.83931C18.5914 4.02996 13.7209 1.10319 8.91299 2.30205C4.10399 3.5009 1.17762 8.37222 2.37654 13.1812C2.37654 13.1813 2.37651 13.1813 2.37649 13.1813L2.37648 13.1812C2.37648 13.1812 2.37647 13.1812 2.37647 13.1812Z"/>
</mask>
<path d="M2.37647 13.1812C2.37645 13.1812 2.37644 13.1813 2.37644 13.1813C3.57531 17.9901 8.44585 20.9166 13.2552 19.7174C18.0626 18.5186 20.9891 13.6477 19.7898 8.83931C18.5914 4.02996 13.7209 1.10319 8.91299 2.30205C4.10399 3.5009 1.17762 8.37222 2.37654 13.1812C2.37654 13.1813 2.37651 13.1813 2.37649 13.1813L2.37648 13.1812C2.37648 13.1812 2.37647 13.1812 2.37647 13.1812Z" fill="#0D121B"/>
<path d="M2.37647 13.1812C2.37645 13.1812 2.37644 13.1813 2.37644 13.1813C3.57531 17.9901 8.44585 20.9166 13.2552 19.7174C18.0626 18.5186 20.9891 13.6477 19.7898 8.83931C18.5914 4.02996 13.7209 1.10319 8.91299 2.30205C4.10399 3.5009 1.17762 8.37222 2.37654 13.1812C2.37654 13.1813 2.37651 13.1813 2.37649 13.1813L2.37648 13.1812C2.37648 13.1812 2.37647 13.1812 2.37647 13.1812Z" fill="black" fill-opacity="0.2"/>
<path d="M13.2552 19.7174L13.577 21.0077L13.5769 21.0077L13.2552 19.7174ZM19.7898 8.83931L18.4996 9.16113L18.4995 9.16081L19.7898 8.83931ZM8.91299 2.30205L9.23471 3.59229L9.23464 3.59231L8.91299 2.30205ZM2.37654 13.1812L3.66679 12.8596L2.37654 13.1812ZM2.37649 13.1813L1.43621 14.1215L2.37649 13.1813ZM2.37648 13.1812L1.43621 14.1215L2.37648 13.1812ZM2.37644 13.1813L3.66669 12.8596L2.37644 13.1813ZM3.66669 12.8596C4.68789 16.9557 8.83668 19.4487 12.9335 18.4272L13.5769 21.0077C8.05503 22.3845 2.46273 19.0244 1.08619 13.5029L3.66669 12.8596ZM12.9335 18.4272C17.0282 17.4061 19.5212 13.257 18.4996 9.16113L21.08 8.51748C22.4571 14.0385 19.097 19.6311 13.577 21.0077L12.9335 18.4272ZM18.4995 9.16081C17.4787 5.06408 13.3299 2.57115 9.23471 3.59229L8.59126 1.01181C14.1119 -0.36477 19.7042 2.99585 21.0801 8.51781L18.4995 9.16081ZM9.23464 3.59231C5.13841 4.61347 2.64548 8.76296 3.66679 12.8596L1.08629 13.5029C-0.290241 7.98148 3.06956 2.38834 8.59133 1.0118L9.23464 3.59231ZM1.43621 14.1215L1.43621 14.1215L3.31676 12.241L3.31676 12.241L1.43621 14.1215ZM3.66679 12.8596C3.82643 13.4999 3.4949 14.0635 3.05569 14.3245C2.60826 14.5903 1.92513 14.6104 1.43621 14.1215L3.31676 12.241C2.82786 11.7521 2.14477 11.7722 1.69736 12.038C1.25817 12.2989 0.926649 12.8626 1.08629 13.5029L3.66679 12.8596ZM1.43621 14.1215C1.68558 14.3709 2.0238 14.511 2.37647 14.511V11.8515C2.72914 11.8515 3.06738 11.9916 3.31676 12.241L1.43621 14.1215ZM1.08619 13.5029C0.880482 12.6778 1.49739 11.8515 2.37647 11.8515V14.511C3.25551 14.511 3.87239 13.6847 3.66669 12.8596L1.08619 13.5029Z" fill="#1F2534" mask="url(#path-9-outside-1)"/>
<g filter="url(#filter0_d)">
<path d="M8.01625 14.6351H14.4048V12.7946H11.0919V12.7462L14.2886 8.67762V7.19551H8.13734V9.03604H11.4648V9.08447L8.01625 13.2838V14.6351Z" fill="url(#paint1_linear)"/>
</g>
<defs>
<filter id="filter0_d" x="4.6058" y="7.19556" width="13.2082" height="14.2593" filterUnits="userSpaceOnUse" color-interpolation-filters="sRGB">
<feFlood flood-opacity="0" result="BackgroundImageFix"/>
<feColorMatrix in="SourceAlpha" type="matrix" values="0 0 0 0 0 0 0 0 0 0 0 0 0 0 0 0 0 0 127 0" result="hardAlpha"/>
<feOffset dy="3.40983"/>
<feGaussianBlur stdDeviation="1.70491"/>
<feColorMatrix type="matrix" values="0 0 0 0 0 0 0 0 0 0 0 0 0 0 0 0 0 0 0.25 0"/>
<feBlend mode="normal" in2="BackgroundImageFix" result="effect1_dropShadow"/>
<feBlend mode="normal" in="SourceGraphic" in2="effect1_dropShadow" result="shape"/>
</filter>
<linearGradient id="paint0_linear" x1="46.9141" y1="7.58887" x2="11.6093" y2="9.14979" gradientUnits="userSpaceOnUse">
<stop stop-color="#FFDFBD"/>
<stop offset="1" stop-color="#D0A7A8"/>
</linearGradient>
<linearGradient id="paint1_linear" x1="3.71875" y1="4.63513" x2="18.6486" y2="5.60801" gradientUnits="userSpaceOnUse">
<stop stop-color="#FFDFBD"/>
<stop offset="1" stop-color="#D0A7A8"/>
</linearGradient>
</defs>
</svg>
