<svg fill="none" height="25" viewBox="0 0 16 25" width="16" xmlns="http://www.w3.org/2000/svg" xmlns:xlink="http://www.w3.org/1999/xlink"><linearGradient id="a"><stop offset="0" stop-color="#717b90"/><stop offset=".854167" stop-color="#5f6779"/></linearGradient><linearGradient id="b" gradientUnits="userSpaceOnUse" x1="4.41651" x2="3.79546" xlink:href="#a" y1=".067383" y2="17.0372"/><linearGradient id="c" gradientUnits="userSpaceOnUse" x1="11.8876" x2="11.253" xlink:href="#a" y1=".067383" y2="17.0362"/><linearGradient id="d" gradientUnits="userSpaceOnUse" x1="4.38185" x2="4.13597" xlink:href="#a" y1="14.0217" y2="24.6568"/><linearGradient id="e" gradientUnits="userSpaceOnUse" x1="11.8856" x2="11.6366" xlink:href="#a" y1="14.0217" y2="24.6567"/><linearGradient id="f" gradientUnits="userSpaceOnUse" x1="4.34081" x2="4.20365" xlink:href="#a" y1="9.15942" y2="17.0527"/><linearGradient id="g" gradientUnits="userSpaceOnUse" x1="11.8856" x2="11.7485" xlink:href="#a" y1="9.15942" y2="17.0527"/><path d="m8.10843.0673828.16501.5604922v16.262725l-.16501.1647-7.548838-4.4622z" fill="url(#b)"/><path d="m8.10843.0673828.16501.5604922v16.262725l-.16501.1647-7.548838-4.4622z" fill="#fff"/><path d="m8.11308.0673828 7.54902 12.5257172-7.54902 4.4622v-7.89354z" fill="url(#c)"/><path d="m8.11308.0673828 7.54902 12.5257172-7.54902 4.4622v-7.89354z" fill="#fff"/><path d="m8.11208 18.4816.093.1134v5.793l-.093.2715-7.553457-10.6378z" fill="url(#d)"/><path d="m8.11208 18.4816.093.1134v5.793l-.093.2715-7.553457-10.6378z" fill="#fff"/><path d="m8.11113 24.6595v-6.1779l7.54907-4.4599z" fill="url(#e)"/><path d="m8.11113 24.6595v-6.1779l7.54907-4.4599z" fill="#fff"/><path d="m8.11523 17.0529-7.548831-4.4622 7.548831-3.43128z" fill="url(#f)"/><path d="m8.11523 17.0529-7.548831-4.4622 7.548831-3.43128z" fill="#fff"/><path d="m15.6602 12.5907-7.54907 4.4622v-7.89348z" fill="url(#g)"/><path d="m15.6602 12.5907-7.54907 4.4622v-7.89348z" fill="#fff"/></svg>