<svg width="14" height="16" viewBox="0 0 14 16" fill="none" xmlns="http://www.w3.org/2000/svg">
<mask id="mask0" mask-type="alpha" maskUnits="userSpaceOnUse" x="0" y="0" width="14" height="16">
<path d="M10.5 5C10.6326 5 10.7598 5.05268 10.8536 5.14645C10.9473 5.24021 11 5.36739 11 5.5C11 5.63261 10.9473 5.75979 10.8536 5.85355C10.7598 5.94732 10.6326 6 10.5 6L8.5 6C8.36739 6 8.24021 5.94732 8.14645 5.85355C8.05268 5.75979 8 5.63261 8 5.5C8 5.36739 8.05268 5.24021 8.14645 5.14645C8.24021 5.05268 8.36739 5 8.5 5L10.5 5ZM10.5 8C10.6326 8 10.7598 8.05268 10.8536 8.14645C10.9473 8.24021 11 8.36739 11 8.5C11 8.63261 10.9473 8.75979 10.8536 8.85355C10.7598 8.94732 10.6326 9 10.5 9L3.5 9C3.36739 9 3.24021 8.94732 3.14645 8.85355C3.05268 8.75979 3 8.63261 3 8.5C3 8.36739 3.05268 8.24022 3.14645 8.14645C3.24021 8.05268 3.36739 8 3.5 8L10.5 8ZM10.5 11C10.6326 11 10.7598 11.0527 10.8536 11.1464C10.9473 11.2402 11 11.3674 11 11.5C11 11.6326 10.9473 11.7598 10.8536 11.8536C10.7598 11.9473 10.6326 12 10.5 12L3.5 12C3.36739 12 3.24021 11.9473 3.14645 11.8536C3.05268 11.7598 3 11.6326 3 11.5C3 11.3674 3.05268 11.2402 3.14645 11.1464C3.24021 11.0527 3.36739 11 3.5 11L10.5 11ZM5 5L5 0.500001C5 0.367392 5.05268 0.240215 5.14644 0.146447C5.24021 0.0526789 5.36739 7.54687e-07 5.5 7.43094e-07C5.63261 7.31501e-07 5.75978 0.0526788 5.85355 0.146447C5.94732 0.240215 6 0.367392 6 0.500001L6 5.5C6 5.63261 5.94732 5.75979 5.85355 5.85355C5.75978 5.94732 5.63261 6 5.5 6L0.499999 6C0.367391 6 0.240213 5.94732 0.146445 5.85355C0.0526772 5.75979 -9.06346e-07 5.63261 -9.17939e-07 5.5C-9.29532e-07 5.36739 0.0526772 5.24022 0.146445 5.14645C0.240213 5.05268 0.367391 5 0.499999 5L5 5ZM0.999999 5.707L1 15L13 15L13 1L5.707 1L0.999999 5.707ZM5.5 7.43094e-07L13.5 4.37114e-08C13.6326 3.21184e-08 13.7598 0.0526781 13.8536 0.146446C13.9473 0.240214 14 0.367392 14 0.5L14 15.5C14 15.6326 13.9473 15.7598 13.8536 15.8536C13.7598 15.9473 13.6326 16 13.5 16L0.5 16C0.367392 16 0.240214 15.9473 0.146446 15.8536C0.0526781 15.7598 -3.21184e-08 15.6326 -4.37114e-08 15.5L-9.17939e-07 5.5C-0.000118226 5.4343 0.0127163 5.36921 0.0377684 5.30847C0.0628204 5.24773 0.099597 5.19252 0.145999 5.146L5.146 0.146001C5.19252 0.0995987 5.24773 0.0628222 5.30847 0.0377701C5.36921 0.012718 5.43429 -0.000117507 5.5 7.43094e-07Z" fill="white"/>
</mask>
<g mask="url(#mask0)">
<path d="M10.5 5C10.6326 5 10.7598 5.05268 10.8536 5.14645C10.9473 5.24021 11 5.36739 11 5.5C11 5.63261 10.9473 5.75979 10.8536 5.85355C10.7598 5.94732 10.6326 6 10.5 6L8.5 6C8.36739 6 8.24021 5.94732 8.14645 5.85355C8.05268 5.75979 8 5.63261 8 5.5C8 5.36739 8.05268 5.24021 8.14645 5.14645C8.24021 5.05268 8.36739 5 8.5 5L10.5 5ZM10.5 8C10.6326 8 10.7598 8.05268 10.8536 8.14645C10.9473 8.24021 11 8.36739 11 8.5C11 8.63261 10.9473 8.75979 10.8536 8.85355C10.7598 8.94732 10.6326 9 10.5 9L3.5 9C3.36739 9 3.24021 8.94732 3.14645 8.85355C3.05268 8.75979 3 8.63261 3 8.5C3 8.36739 3.05268 8.24022 3.14645 8.14645C3.24021 8.05268 3.36739 8 3.5 8L10.5 8ZM10.5 11C10.6326 11 10.7598 11.0527 10.8536 11.1464C10.9473 11.2402 11 11.3674 11 11.5C11 11.6326 10.9473 11.7598 10.8536 11.8536C10.7598 11.9473 10.6326 12 10.5 12L3.5 12C3.36739 12 3.24021 11.9473 3.14645 11.8536C3.05268 11.7598 3 11.6326 3 11.5C3 11.3674 3.05268 11.2402 3.14645 11.1464C3.24021 11.0527 3.36739 11 3.5 11L10.5 11ZM5 5L5 0.500001C5 0.367392 5.05268 0.240215 5.14644 0.146447C5.24021 0.0526789 5.36739 7.54687e-07 5.5 7.43094e-07C5.63261 7.31501e-07 5.75978 0.0526788 5.85355 0.146447C5.94732 0.240215 6 0.367392 6 0.500001L6 5.5C6 5.63261 5.94732 5.75979 5.85355 5.85355C5.75978 5.94732 5.63261 6 5.5 6L0.499999 6C0.367391 6 0.240213 5.94732 0.146445 5.85355C0.0526772 5.75979 -9.06346e-07 5.63261 -9.17939e-07 5.5C-9.29532e-07 5.36739 0.0526772 5.24022 0.146445 5.14645C0.240213 5.05268 0.367391 5 0.499999 5L5 5ZM0.999999 5.707L1 15L13 15L13 1L5.707 1L0.999999 5.707ZM5.5 7.43094e-07L13.5 4.37114e-08C13.6326 3.21184e-08 13.7598 0.0526781 13.8536 0.146446C13.9473 0.240214 14 0.367392 14 0.5L14 15.5C14 15.6326 13.9473 15.7598 13.8536 15.8536C13.7598 15.9473 13.6326 16 13.5 16L0.5 16C0.367392 16 0.240214 15.9473 0.146446 15.8536C0.0526781 15.7598 -3.21184e-08 15.6326 -4.37114e-08 15.5L-9.17939e-07 5.5C-0.000118226 5.4343 0.0127163 5.36921 0.0377684 5.30847C0.0628204 5.24773 0.099597 5.19252 0.145999 5.146L5.146 0.146001C5.19252 0.0995987 5.24773 0.0628222 5.30847 0.0377701C5.36921 0.012718 5.43429 -0.000117507 5.5 7.43094e-07Z" fill="#8192DB"/>
</g>
</svg>
