<svg width="48" height="45" viewBox="0 0 48 45" fill="none" xmlns="http://www.w3.org/2000/svg">
<path d="M46.2204 29.2305C43.6304 39.6196 33.1079 45.9422 22.7176 43.3515C12.3317 40.7614 6.00914 30.2383 8.60031 19.8501C11.1892 9.45992 21.7116 3.13687 32.0987 5.7269C42.4883 8.31694 48.8104 18.8412 46.2201 29.2307L46.2203 29.2305H46.2204Z" stroke="url(#paint0_linear)" stroke-width="1.70491"/>
<path d="M24.7053 32.3501C24.7053 33.393 23.8709 34.2274 22.828 34.2274C21.8148 34.2274 20.9805 33.393 20.9805 32.3501C20.9805 31.3071 21.8148 30.4728 22.8578 30.4728C23.8709 30.5026 24.7053 31.3369 24.7053 32.3501Z" fill="#9C9DA9"/>
<path d="M20.9805 27.6719C20.9805 27.5527 20.9805 27.4335 21.0103 27.3441C21.0401 26.9865 21.1295 26.6587 21.2785 26.3309C21.5466 25.7648 21.9638 25.3178 22.5002 25.0198C22.977 24.7516 23.4836 24.5728 24.0199 24.5132C24.3179 24.4834 24.6457 24.4536 24.9437 24.4536H32.006V24.6622C31.9762 25.0496 31.8868 25.437 31.7378 25.8243C31.4696 26.3905 31.0226 26.8673 30.4266 27.1653C29.9796 27.4037 29.4731 27.5527 28.9665 27.6421C28.6685 27.7017 28.3407 27.7017 28.0129 27.7017H20.9805V27.6719Z" fill="#9C9DA9"/>
<path d="M37.8425 17.7488C37.8425 17.9276 37.8425 18.1362 37.8127 18.315C37.7233 18.8811 37.4551 19.4175 37.0677 19.8347C36.7101 20.1923 36.2929 20.4605 35.846 20.6392C35.3096 20.8478 34.7732 20.9372 34.207 20.967H21.2148V20.9074C21.2148 20.4605 21.3042 20.0433 21.483 19.6559C21.7512 19.0599 22.1684 18.6129 22.7346 18.315C23.1816 18.0468 23.7179 17.8978 24.2245 17.8084C24.5523 17.7786 24.8801 17.7488 25.1781 17.7488H37.8425Z" fill="#9C9DA9"/>
<mask id="path-5-outside-1" maskUnits="userSpaceOnUse" x="0.0585938" y="-0.594971" width="22" height="22" fill="black">
<rect fill="white" x="0.0585938" y="-0.594971" width="22" height="22"/>
<path d="M2.37647 12.5528C2.37645 12.5528 2.37644 12.5528 2.37644 12.5529C3.57531 17.3617 8.44585 20.2882 13.2552 19.089C18.0626 17.8902 20.9891 13.0193 19.7898 8.21089C18.5914 3.40154 13.7209 0.474774 8.91299 1.67363C4.10399 2.87248 1.17762 7.7438 2.37654 12.5528C2.37654 12.5528 2.37651 12.5529 2.37649 12.5528L2.37648 12.5528C2.37648 12.5528 2.37647 12.5528 2.37647 12.5528Z"/>
</mask>
<path d="M2.37647 12.5528C2.37645 12.5528 2.37644 12.5528 2.37644 12.5529C3.57531 17.3617 8.44585 20.2882 13.2552 19.089C18.0626 17.8902 20.9891 13.0193 19.7898 8.21089C18.5914 3.40154 13.7209 0.474774 8.91299 1.67363C4.10399 2.87248 1.17762 7.7438 2.37654 12.5528C2.37654 12.5528 2.37651 12.5529 2.37649 12.5528L2.37648 12.5528C2.37648 12.5528 2.37647 12.5528 2.37647 12.5528Z" fill="#0D121B"/>
<path d="M2.37647 12.5528C2.37645 12.5528 2.37644 12.5528 2.37644 12.5529C3.57531 17.3617 8.44585 20.2882 13.2552 19.089C18.0626 17.8902 20.9891 13.0193 19.7898 8.21089C18.5914 3.40154 13.7209 0.474774 8.91299 1.67363C4.10399 2.87248 1.17762 7.7438 2.37654 12.5528C2.37654 12.5528 2.37651 12.5529 2.37649 12.5528L2.37648 12.5528C2.37648 12.5528 2.37647 12.5528 2.37647 12.5528Z" fill="black" fill-opacity="0.2"/>
<path d="M13.2552 19.089L13.577 20.3793L13.5769 20.3793L13.2552 19.089ZM19.7898 8.21089L18.4996 8.53271L18.4995 8.53239L19.7898 8.21089ZM8.91299 1.67363L9.23471 2.96387L9.23464 2.96389L8.91299 1.67363ZM2.37654 12.5528L3.66679 12.2311L2.37654 12.5528ZM2.37649 12.5528L1.43621 13.4931L2.37649 12.5528ZM2.37648 12.5528L1.43621 13.4931L2.37648 12.5528ZM2.37644 12.5529L3.66669 12.2312L2.37644 12.5529ZM3.66669 12.2312C4.68789 16.3273 8.83668 18.8203 12.9335 17.7988L13.5769 20.3793C8.05503 21.7561 2.46273 18.396 1.08619 12.8745L3.66669 12.2312ZM12.9335 17.7988C17.0282 16.7777 19.5212 12.6286 18.4996 8.53271L21.08 7.88907C22.4571 13.41 19.097 19.0027 13.577 20.3793L12.9335 17.7988ZM18.4995 8.53239C17.4787 4.43566 13.3299 1.94274 9.23471 2.96387L8.59126 0.383395C14.1119 -0.993188 19.7042 2.36743 21.0801 7.88939L18.4995 8.53239ZM9.23464 2.96389C5.13841 3.98505 2.64548 8.13454 3.66679 12.2311L1.08629 12.8745C-0.290241 7.35306 3.06956 1.75992 8.59133 0.383377L9.23464 2.96389ZM1.43621 13.4931L1.43621 13.4931L3.31676 11.6126L3.31676 11.6126L1.43621 13.4931ZM3.66679 12.2311C3.82643 12.8715 3.4949 13.4351 3.05569 13.6961C2.60826 13.9619 1.92513 13.982 1.43621 13.4931L3.31676 11.6126C2.82786 11.1237 2.14477 11.1438 1.69736 11.4096C1.25817 11.6705 0.926649 12.2341 1.08629 12.8745L3.66679 12.2311ZM1.43621 13.4931C1.68558 13.7425 2.0238 13.8826 2.37647 13.8826V11.2231C2.72914 11.2231 3.06738 11.3632 3.31676 11.6126L1.43621 13.4931ZM1.08619 12.8745C0.880482 12.0494 1.49739 11.2231 2.37647 11.2231V13.8826C3.25551 13.8826 3.87239 13.0563 3.66669 12.2312L1.08619 12.8745Z" fill="#1F2534" mask="url(#path-5-outside-1)"/>
<g filter="url(#filter0_d)">
<path d="M8.01625 14.0067H14.4048V12.1662H11.0919V12.1177L14.2886 8.0492V6.56709H8.13734V8.40762H11.4648V8.45606L8.01625 12.6554V14.0067Z" fill="url(#paint1_linear)"/>
</g>
<defs>
<filter id="filter0_d" x="4.6058" y="6.56714" width="13.2082" height="14.2593" filterUnits="userSpaceOnUse" color-interpolation-filters="sRGB">
<feFlood flood-opacity="0" result="BackgroundImageFix"/>
<feColorMatrix in="SourceAlpha" type="matrix" values="0 0 0 0 0 0 0 0 0 0 0 0 0 0 0 0 0 0 127 0" result="hardAlpha"/>
<feOffset dy="3.40983"/>
<feGaussianBlur stdDeviation="1.70491"/>
<feColorMatrix type="matrix" values="0 0 0 0 0 0 0 0 0 0 0 0 0 0 0 0 0 0 0.25 0"/>
<feBlend mode="normal" in2="BackgroundImageFix" result="effect1_dropShadow"/>
<feBlend mode="normal" in="SourceGraphic" in2="effect1_dropShadow" result="shape"/>
</filter>
<linearGradient id="paint0_linear" x1="8.01953" y1="5.14661" x2="46.7249" y2="6.85789" gradientUnits="userSpaceOnUse">
<stop stop-color="#FFDFBD"/>
<stop offset="1" stop-color="#D0A7A8"/>
</linearGradient>
<linearGradient id="paint1_linear" x1="3.71875" y1="4.00671" x2="18.6486" y2="4.97959" gradientUnits="userSpaceOnUse">
<stop stop-color="#FFDFBD"/>
<stop offset="1" stop-color="#D0A7A8"/>
</linearGradient>
</defs>
</svg>
