<svg fill="none" height="29" viewBox="0 0 18 29" width="18" xmlns="http://www.w3.org/2000/svg" xmlns:xlink="http://www.w3.org/1999/xlink"><linearGradient id="a"><stop offset="0" stop-color="#717b90"/><stop offset=".854167" stop-color="#5f6779"/></linearGradient><linearGradient id="b" gradientUnits="userSpaceOnUse" x1="4.67083" x2="3.94544" xlink:href="#a" y1=".102051" y2="19.9231"/><linearGradient id="c" gradientUnits="userSpaceOnUse" x1="13.3979" x2="12.6568" xlink:href="#a" y1=".102051" y2="19.9219"/><linearGradient id="d" gradientUnits="userSpaceOnUse" x1="4.63011" x2="4.34293" xlink:href="#a" y1="16.4009" y2="28.8228"/><linearGradient id="e" gradientUnits="userSpaceOnUse" x1="13.396" x2="13.1051" xlink:href="#a" y1="16.4009" y2="28.8226"/><linearGradient id="f" gradientUnits="userSpaceOnUse" x1="4.58361" x2="4.4234" xlink:href="#a" y1="10.7217" y2="19.9412"/><linearGradient id="g" gradientUnits="userSpaceOnUse" x1="13.396" x2="13.2358" xlink:href="#a" y1="10.7217" y2="19.9412"/><path d="m8.98305.102051.19273.654663v18.995086l-.19273.1923-8.817154-5.2119z" fill="url(#b)"/><path d="m8.98305.102051.19273.654663v18.995086l-.19273.1923-8.817154-5.2119z" fill="#9054f5"/><path d="m8.98926.102051 8.81734 14.630149-8.81734 5.2119v-9.2197z" fill="url(#c)"/><path d="m8.98926.102051 8.81734 14.630149-8.81734 5.2119v-9.2197z" fill="#9054f5"/><path d="m8.98708 21.6101.10862.1324v6.7664l-.10862.3171-8.822549-12.4251z" fill="url(#d)"/><path d="m8.98708 21.6101.10862.1324v6.7664l-.10862.3171-8.822549-12.4251z" fill="#9054f5"/><path d="m8.98731 28.826v-7.2159l8.81739-5.2092z" fill="url(#e)"/><path d="m8.98731 28.826v-7.2159l8.81739-5.2092z" fill="#9054f5"/><path d="m8.99219 19.9414-8.817155-5.2119 8.817155-4.0078z" fill="url(#f)"/><path d="m8.99219 19.9414-8.817155-5.2119 8.817155-4.0078z" fill="#9054f5"/><path d="m17.8047 14.7295-8.81739 5.2119v-9.2197z" fill="url(#g)"/><path d="m17.8047 14.7295-8.81739 5.2119v-9.2197z" fill="#9054f5"/></svg>