<svg width="22" height="22" viewBox="0 0 22 22" fill="none" xmlns="http://www.w3.org/2000/svg">
<path d="M20.0992 15.6031L15.0992 10.7531L17.8192 8.42306C18.2857 8.02243 18.5741 7.45296 18.621 6.8398C18.6679 6.22664 18.4694 5.61995 18.0692 5.15306L14.5992 1.08306C14.4042 0.848368 14.1636 0.655607 13.8921 0.516397C13.6205 0.377186 13.3236 0.294409 13.0192 0.273056C12.7151 0.248608 12.4093 0.284624 12.1192 0.379023C11.8291 0.473423 11.5606 0.624337 11.3292 0.823056L3.2292 7.78306L1.2292 9.52306C0.997049 9.72067 0.806308 9.96228 0.667978 10.234C0.529649 10.5056 0.446466 10.802 0.423226 11.106C0.399985 11.41 0.437148 11.7156 0.53257 12.0051C0.627992 12.2947 0.779787 12.5625 0.979201 12.7931L4.4592 16.8631C4.65801 17.0959 4.90076 17.2873 5.17359 17.4263C5.44641 17.5653 5.74395 17.6491 6.0492 17.6731H6.2292C6.78095 17.6766 7.31478 17.4773 7.7292 17.1131L9.7292 15.3731L10.4192 14.7831L14.4192 20.4531C14.7229 20.8752 15.1107 21.2299 15.5582 21.495C16.0056 21.76 16.503 21.9296 17.0192 21.9931C17.169 22.003 17.3194 22.003 17.4692 21.9931C18.2133 21.9933 18.9406 21.7716 19.558 21.3563C20.1754 20.941 20.6549 20.3509 20.9352 19.6616C21.2154 18.9723 21.2836 18.215 21.1312 17.4867C20.9787 16.7584 20.6124 16.0921 20.0792 15.5731L20.0992 15.6031ZM9.9492 12.6031L9.1892 13.2531L5.2792 8.70306L9.8392 4.79306L13.7392 9.27306L11.4592 11.2731L9.9492 12.6031ZM12.8392 2.27306C12.8817 2.27415 12.9234 2.28457 12.9614 2.30358C12.9995 2.32259 13.0328 2.34972 13.0592 2.38306L16.5492 6.45306C16.6051 6.51618 16.6339 6.59884 16.6292 6.68306C16.6177 6.76869 16.575 6.84705 16.5092 6.90306L15.2292 8.00306L11.3292 3.44306L12.6292 2.35306C12.6867 2.30106 12.7617 2.27252 12.8392 2.27306ZM6.1592 15.6731C6.11684 15.6713 6.07533 15.6606 6.03741 15.6416C5.99949 15.6227 5.96602 15.5959 5.9392 15.5631L2.4492 11.4931C2.42177 11.462 2.40132 11.4253 2.38924 11.3857C2.37717 11.346 2.37374 11.3042 2.3792 11.2631C2.38095 11.2207 2.39166 11.1792 2.41062 11.1413C2.42958 11.1033 2.45636 11.0699 2.4892 11.0431L3.7592 9.95306L7.6692 14.5031L6.3892 15.6031C6.3581 15.6305 6.32147 15.6509 6.2818 15.663C6.24212 15.6751 6.20031 15.6785 6.1592 15.6731ZM18.6192 19.6031C18.4371 19.7616 18.2237 19.8801 17.9928 19.9507C17.762 20.0213 17.5188 20.0426 17.2792 20.0131C17.037 19.981 16.8043 19.8986 16.5959 19.7711C16.3875 19.6437 16.2081 19.474 16.0692 19.2731L11.9392 13.4631L12.7692 12.7531L13.5892 12.0431L18.6992 17.0431C18.8742 17.2108 19.012 17.4135 19.1037 17.6379C19.1954 17.8623 19.2389 18.1035 19.2313 18.3459C19.2238 18.5882 19.1654 18.8262 19.0599 19.0445C18.9545 19.2628 18.8043 19.4565 18.6192 19.6131V19.6031Z" fill="#565A64"/>
</svg>
