<svg width="34" height="34" viewBox="0 0 34 34" fill="none" xmlns="http://www.w3.org/2000/svg">
<g style="mix-blend-mode:screen" opacity="0.2" filter="url(#filter0_b)">
<path d="M33.0241 20.6612C30.85 29.3821 22.0171 34.6895 13.2951 32.5148C4.57682 30.3406 -0.730559 21.5072 1.44456 12.787C3.61777 4.06507 12.4507 -1.24271 21.1699 0.931456C29.8912 3.10562 35.1983 11.94 33.0239 20.6613L33.0241 20.6612H33.0241Z" fill="#423E52"/>
<path d="M33.0241 20.6612C30.85 29.3821 22.0171 34.6895 13.2951 32.5148C4.57682 30.3406 -0.730559 21.5072 1.44456 12.787C3.61777 4.06507 12.4507 -1.24271 21.1699 0.931456C29.8912 3.10562 35.1983 11.94 33.0239 20.6613L33.0241 20.6612H33.0241Z" fill="#9C9DA9"/>
</g>
<path d="M17.2672 20.5468L19.1789 22.4586L24.9141 16.7234L19.1789 10.9883L17.2672 12.9L19.7389 15.3716L9.55027 15.3716L9.55027 18.0752L19.7389 18.0752L17.2672 20.5468Z" fill="#0EAE00"/>
<defs>
<filter id="filter0_b" x="-79.2994" y="-79.8121" width="193.067" height="193.071" filterUnits="userSpaceOnUse" color-interpolation-filters="sRGB">
<feFlood flood-opacity="0" result="BackgroundImageFix"/>
<feGaussianBlur in="BackgroundImage" stdDeviation="40.1282"/>
<feComposite in2="SourceAlpha" operator="in" result="effect1_backgroundBlur"/>
<feBlend mode="normal" in="SourceGraphic" in2="effect1_backgroundBlur" result="shape"/>
</filter>
</defs>
</svg>
