<svg width="42" height="42" viewBox="0 0 42 42" fill="none" xmlns="http://www.w3.org/2000/svg">
<g opacity="0.2">
<path d="M33.9226 11.894H27.057V15.9682H33.9226C35.9651 15.9682 37.5493 17.0105 37.5493 17.9082V35.9749C37.5493 36.8719 35.9651 37.9156 33.9226 37.9156H7.96966C5.92784 37.9156 4.34367 36.8719 4.34367 35.9749V17.9102C4.34367 17.0125 5.92784 15.9695 7.96966 15.9695H14.8346V11.8954H7.96966C3.65175 11.8954 0.269531 14.5375 0.269531 17.9102V35.9756C0.269531 39.349 3.65175 41.9897 7.96966 41.9897H33.924C38.2405 41.9897 41.6241 39.3477 41.6241 35.9756V17.9102C41.6234 14.5361 38.2412 11.894 33.9226 11.894Z" fill="white"/>
<path d="M27.1112 20.4089C26.5897 20.4089 26.0689 20.6085 25.671 21.0064L23.1205 23.5562V14.7105V10.6364V2.83102C23.1205 1.70655 22.2086 0.793945 21.0835 0.793945C19.9583 0.793945 19.0464 1.70655 19.0464 2.83102V10.6357V14.7099V23.6933L16.3581 21.0058C15.9602 20.6079 15.4387 20.4082 14.9179 20.4082C14.3971 20.4082 13.8756 20.6079 13.4777 21.0058C12.6819 21.8002 12.6819 23.0904 13.4777 23.8855L19.5597 29.9675C19.9576 30.3654 20.4791 30.563 20.9993 30.563C21.0047 30.563 21.0101 30.563 21.0149 30.563C21.0196 30.563 21.0251 30.563 21.0298 30.563C21.5513 30.563 22.0714 30.3654 22.4694 29.9675L28.5514 23.8855C29.3472 23.0904 29.3472 21.8002 28.5514 21.0058C28.1535 20.6085 27.6333 20.4089 27.1112 20.4089Z" fill="white"/>
</g>
</svg>
