<svg fill="none" height="20" viewBox="0 0 20 20" width="20" xmlns="http://www.w3.org/2000/svg"><g fill="#687692"><path clip-rule="evenodd" d="m9.78467 2.59641c-4.29276 0-7.77273 3.47997-7.77273 7.77269 0 4.2928 3.47997 7.7728 7.77273 7.7728 4.29273 0 7.77273-3.48 7.77273-7.7728 0-4.29272-3.48-7.77269-7.77273-7.77269zm-9.500002 7.77269c0-5.24666 4.253292-9.499959 9.500002-9.499959 5.24673 0 9.50003 4.253299 9.50003 9.499959 0 5.2467-4.2533 9.5-9.50003 9.5-5.24671 0-9.500002-4.2533-9.500002-9.5z" fill-rule="evenodd"/><path d="m9.43911 8.28545c.73629 0 1.33319-.59687 1.33319-1.33315s-.5969-1.33316-1.33319-1.33316c-.73628 0-1.33315.59688-1.33315 1.33316s.59687 1.33315 1.33315 1.33315z"/><path d="m11.5127 14.4881c0 .3486-.2826.6312-.6312.6312h-2.19219c-.34861 0-.6312-.2826-.6312-.6312v-.4535c0-.1743.14129-.3156.3156-.3156.1743 0 .3156-.1413.3156-.3156v-1.7543c0-.1719-.13939-.3113-.31134-.3113-.17194 0-.31133-.1394-.31133-.3113v-.4663c0-.3439.27877-.6227.62267-.6227h1.87659c.1743 0 .3156.1413.3156.3156v3.1503c0 .1743.1412.3156.3156.3156.1743 0 .3156.1413.3156.3156z"/></g></svg>