<svg width="17" height="17" viewBox="0 0 17 17" fill="none" xmlns="http://www.w3.org/2000/svg">
<path fill-rule="evenodd" clip-rule="evenodd" d="M8.5 1.54545C4.65911 1.54545 1.54545 4.65911 1.54545 8.5C1.54545 12.3409 4.65911 15.4545 8.5 15.4545C12.3409 15.4545 15.4545 12.3409 15.4545 8.5C15.4545 4.65911 12.3409 1.54545 8.5 1.54545ZM0 8.5C0 3.80558 3.80558 0 8.5 0C13.1944 0 17 3.80558 17 8.5C17 13.1944 13.1944 17 8.5 17C3.80558 17 0 13.1944 0 8.5Z" fill="#475267"/>
<path d="M8.19105 6.63565C8.84983 6.63565 9.38387 6.1016 9.38387 5.44282C9.38387 4.78405 8.84983 4.25 8.19105 4.25C7.53227 4.25 6.99822 4.78405 6.99822 5.44282C6.99822 6.1016 7.53227 6.63565 8.19105 6.63565Z" fill="#475267"/>
<path d="M10.0469 12.75H6.95597V11.4971H7.52072V9.36654H6.9636V8.11364H9.48212V11.4971H10.0469V12.75Z" fill="#475267"/>
</svg>
