<svg width="56" height="55" viewBox="0 0 56 55" fill="none" xmlns="http://www.w3.org/2000/svg">
<path d="M53.5158 35.8612C50.4775 48.0484 38.1338 55.4653 25.9452 52.4262C13.7617 49.3879 6.34478 37.0435 9.38443 24.8573C12.4214 12.6687 24.7651 5.2513 36.9499 8.28962C49.1377 11.3279 56.5541 23.6737 53.5155 35.8615L53.5157 35.8612H53.5158Z" stroke="url(#paint0_linear)" stroke-width="2"/>
<path d="M31.6179 23.9079L37.2465 27.1221V33.5762L31.6334 36.8111L26.0047 33.602V27.1478L31.6179 23.9079ZM31.6179 19.1636L29.5523 20.3548L23.9288 23.5947L21.8633 24.7859V27.1581V33.6071V35.9792L23.9288 37.1602L29.5575 40.3744L31.623 41.5553L33.6886 40.3641L39.3018 37.1243L41.3673 35.9382V33.566V27.1118V24.7397L39.3018 23.5588L33.6731 20.3445L31.6076 19.1636H31.6179Z" fill="#9C9DA9"/>
<mask id="path-3-outside-1" maskUnits="userSpaceOnUse" x="-0.171875" y="-0.117188" width="25" height="25" fill="black">
<rect fill="white" x="-0.171875" y="-0.117188" width="25" height="25"/>
<path d="M2.08558 14.9601C2.08556 14.9601 2.08555 14.9601 2.08555 14.9601C3.49192 20.6012 9.20546 24.0343 14.8472 22.6276C20.4867 21.2212 23.9197 15.5073 22.5128 9.86663C21.107 4.22488 15.3935 0.791549 9.75344 2.19791C4.1121 3.60425 0.679237 9.3187 2.08566 14.96C2.08567 14.9601 2.08563 14.9601 2.0856 14.9601L2.0856 14.9601C2.0856 14.9601 2.08559 14.9601 2.08558 14.9601Z"/>
</mask>
<path d="M2.08558 14.9601C2.08556 14.9601 2.08555 14.9601 2.08555 14.9601C3.49192 20.6012 9.20546 24.0343 14.8472 22.6276C20.4867 21.2212 23.9197 15.5073 22.5128 9.86663C21.107 4.22488 15.3935 0.791549 9.75344 2.19791C4.1121 3.60425 0.679237 9.3187 2.08566 14.96C2.08567 14.9601 2.08563 14.9601 2.0856 14.9601L2.0856 14.9601C2.0856 14.9601 2.08559 14.9601 2.08558 14.9601Z" fill="#0D121B"/>
<path d="M2.08558 14.9601C2.08556 14.9601 2.08555 14.9601 2.08555 14.9601C3.49192 20.6012 9.20546 24.0343 14.8472 22.6276C20.4867 21.2212 23.9197 15.5073 22.5128 9.86663C21.107 4.22488 15.3935 0.791549 9.75344 2.19791C4.1121 3.60425 0.679237 9.3187 2.08566 14.96C2.08567 14.9601 2.08563 14.9601 2.0856 14.9601L2.0856 14.9601C2.0856 14.9601 2.08559 14.9601 2.08558 14.9601Z" fill="black" fill-opacity="0.2"/>
<path d="M14.8472 22.6276L15.2247 24.1411L15.2246 24.1411L14.8472 22.6276ZM22.5128 9.86663L20.9992 10.2442L20.9992 10.2438L22.5128 9.86663ZM9.75344 2.19791L10.1308 3.71146L10.1308 3.71148L9.75344 2.19791ZM2.08566 14.96L0.572096 15.3374L2.08566 14.96ZM2.0856 14.9601L0.982592 16.0631L2.0856 14.9601ZM2.0856 14.9601L0.98259 16.0631L2.0856 14.9601ZM2.08555 14.9601L0.571983 15.3374L2.08555 14.9601ZM3.59912 14.5828C4.79707 19.3879 9.66393 22.3123 14.4698 21.114L15.2246 24.1411C8.74698 25.7562 2.18678 21.8146 0.571983 15.3374L3.59912 14.5828ZM14.4698 21.114C19.2732 19.9161 22.1977 15.0489 20.9992 10.2442L24.0263 9.4891C25.6418 15.9657 21.7001 22.5263 15.2247 24.1411L14.4698 21.114ZM20.9992 10.2438C19.8017 5.43799 14.9348 2.51359 10.1308 3.71146L9.37603 0.684354C15.8522 -0.930488 22.4124 3.01178 24.0264 9.48948L20.9992 10.2438ZM10.1308 3.71148C5.32557 4.90938 2.40115 9.77707 3.59923 14.5827L0.572096 15.3374C-1.04268 8.86033 2.89863 2.29912 9.37612 0.684333L10.1308 3.71148ZM0.982592 16.0631L0.98259 16.0631L3.18862 13.8571V13.8571L0.982592 16.0631ZM3.59923 14.5827C3.78651 15.3339 3.3976 15.9951 2.88236 16.3012C2.35749 16.613 1.55613 16.6366 0.982592 16.0631L3.18862 13.8571C2.6151 13.2835 1.81378 13.3072 1.28893 13.619C0.773724 13.9251 0.384829 14.5862 0.572096 15.3374L3.59923 14.5827ZM0.98259 16.0631C1.27512 16.3556 1.67188 16.52 2.08558 16.52V13.4002C2.4993 13.4002 2.89607 13.5645 3.18862 13.8571L0.98259 16.0631ZM0.571983 15.3374C0.330671 14.3695 1.05435 13.4002 2.08558 13.4002V16.52C3.11677 16.52 3.84042 15.5506 3.59912 14.5828L0.571983 15.3374Z" fill="#1F2534" mask="url(#path-3-outside-1)"/>
<g filter="url(#filter0_d)">
<path d="M8.70147 16.9346H16.1958V14.7755H12.3094V14.7187L16.0594 9.94593V8.2073H8.84352V10.3664H12.7469V10.4232L8.70147 15.3493V16.9346Z" fill="url(#paint1_linear)"/>
</g>
<defs>
<filter id="filter0_d" x="4.70312" y="8.20752" width="15.4943" height="16.7273" filterUnits="userSpaceOnUse" color-interpolation-filters="sRGB">
<feFlood flood-opacity="0" result="BackgroundImageFix"/>
<feColorMatrix in="SourceAlpha" type="matrix" values="0 0 0 0 0 0 0 0 0 0 0 0 0 0 0 0 0 0 127 0" result="hardAlpha"/>
<feOffset dy="4"/>
<feGaussianBlur stdDeviation="2"/>
<feColorMatrix type="matrix" values="0 0 0 0 0 0 0 0 0 0 0 0 0 0 0 0 0 0 0.25 0"/>
<feBlend mode="normal" in2="BackgroundImageFix" result="effect1_dropShadow"/>
<feBlend mode="normal" in="SourceGraphic" in2="effect1_dropShadow" result="shape"/>
</filter>
<linearGradient id="paint0_linear" x1="8.70312" y1="7.60889" x2="54.1076" y2="9.61636" gradientUnits="userSpaceOnUse">
<stop stop-color="#FFDFBD"/>
<stop offset="1" stop-color="#D0A7A8"/>
</linearGradient>
<linearGradient id="paint1_linear" x1="3.66016" y1="4.93457" x2="21.1741" y2="6.07584" gradientUnits="userSpaceOnUse">
<stop stop-color="#FFDFBD"/>
<stop offset="1" stop-color="#D0A7A8"/>
</linearGradient>
</defs>
</svg>
