<svg width="22" height="18" viewBox="0 0 22 18" fill="none" xmlns="http://www.w3.org/2000/svg">
<g filter="url(#filter0_b_3839_1168)">
<path d="M20.2968 2.75826L21.9979 1.11385V0.753906H16.1052L11.9055 11.3169L7.12754 0.753906H0.948829V1.11385L2.93586 3.5311C3.1295 3.70973 3.23076 3.97093 3.205 4.23393V13.7333C3.26629 14.0753 3.15615 14.4272 2.9181 14.6758L0.679688 17.4171V17.7725H7.02628V17.4126L4.78788 14.6758C4.54538 14.4263 4.4308 14.0807 4.47965 13.7333V5.51661L10.0508 17.777H10.6983L15.4887 5.51661V15.2835C15.4887 15.5411 15.4887 15.594 15.3217 15.7628L13.5985 17.4476V17.8084H21.9588V17.4485L20.2977 15.805C20.1521 15.6937 20.0766 15.507 20.1076 15.3257V3.23759C20.0766 3.05537 20.1512 2.86867 20.2968 2.75826Z" fill="#3F537A"/>
</g>
<defs>
<filter id="filter0_b_3839_1168" x="-79.3203" y="-79.2461" width="181.32" height="177.055" filterUnits="userSpaceOnUse" color-interpolation-filters="sRGB">
<feFlood flood-opacity="0" result="BackgroundImageFix"/>
<feGaussianBlur in="BackgroundImage" stdDeviation="40"/>
<feComposite in2="SourceAlpha" operator="in" result="effect1_backgroundBlur_3839_1168"/>
<feBlend mode="normal" in="SourceGraphic" in2="effect1_backgroundBlur_3839_1168" result="shape"/>
</filter>
</defs>
</svg>
