<svg fill="none" height="17" viewBox="0 0 21 17" width="21" xmlns="http://www.w3.org/2000/svg"><path d="m18.9042 2.62163 1.5958-1.54273v-.337689h-5.5283l-3.94 9.909889-4.48253-9.909889h-5.79667v.337689l1.86417 2.26778c.18166.16758.27666.41264.2525.65937v8.91205c.0575.3208-.04584.6509-.26917.8842l-2.1 2.5718v.3334h5.95417v-.3377l-2.1-2.5675c-.2275-.2341-.335-.5584-.28917-.8842v-7.70868l5.22667 11.50228h.6075l4.49413-11.50228v9.16298c0 .2417 0 .2913-.1566.4497l-1.6167 1.5806v.3385h7.8433v-.3377l-1.5583-1.5419c-.1367-.1044-.2075-.2795-.1783-.4497v-11.34058c-.0292-.17095.0408-.34611.1775-.44969z" fill="#9ea2ab"/></svg>