<svg fill="none" height="48" viewBox="0 0 48 48" width="48" xmlns="http://www.w3.org/2000/svg" xmlns:xlink="http://www.w3.org/1999/xlink"><linearGradient id="a" gradientUnits="userSpaceOnUse" x1="23.1235" x2="21.8918" y1=".208486" y2="47.7671"><stop offset="0" stop-color="#ffdfbd"/><stop offset="1" stop-color="#d0a7a8"/></linearGradient><linearGradient id="b" gradientUnits="userSpaceOnUse" x1="191.206" x2="25.263" y1="74.7294" y2="43.4275"><stop offset="0" stop-color="#7484a0"/><stop offset="1" stop-color="#5f6c85"/></linearGradient><linearGradient id="c" gradientUnits="userSpaceOnUse" x1="25.2629" x2="25.263" y1="-9.28079" y2="43.4275"><stop offset="0" stop-color="#fff"/><stop offset="1" stop-color="#fff" stop-opacity="0"/></linearGradient><circle cx="23.994" cy="24.015" fill="#131621" r="22.9091" stroke="url(#a)" stroke-width="1.79478"/><path d="m7.12343 14.4541c.0915-.0333.183-.0582.2246-.0665 2.86987-.6239 8.31017-1.6554 11.58767-1.3227.2662.025.5075-.158.549-.4159.1165-.7404.4243-1.9133.6073-2.0796.1248-.1082.3411-.3411.8485 0 .4326.2911 2.3209 2.1545 2.8948 2.7284.1082.1082.2496.1581.3993.1414.4243-.0415 1.3476-.0998 1.9881.025.8485.1664 6.6382 3.4023 7.8361 4.7665.9067 1.0398.9233 1.8717.8818 2.2211-.0167.1164.0083.2329.0748.3327l2.6786 4.2591c.0749.1164.0998.2579.0582.391-.0832.3327-.2995.9483-.7819 1.3476-.1165.0915-.1914.2329-.1997.3826-.0166.4492-.0832 1.3726-.3327 1.6304-.2662.2662-1.1313 1.0315-1.5223 1.3726-.1165.0998-.1747.2495-.1664.3993.025.549.0499 1.88-.3577 2.1462-.5074.341-3.4022.5074-3.7433 0l-2.9364-2.9115c-1.0898-.6405-2.3542-1.0066-3.7018-1.0066-2.1961 0-4.1676.965-5.5068 2.4956-.183.1747-.3411.366-.4576.5656-.0083.0084-.0083.0167-.0166.025-.8485 1.1979-1.3476 2.6536-1.3476 4.2258 0 4.0428 3.2775 7.3203 7.3203 7.3203 10.7226 0 19.4071-8.6928 19.4071-19.4071 0-10.7142-8.6845-19.41542-19.3988-19.41542-7.2454 0-13.5592 3.96794-16.88657 9.84912-.00832 0-.00832 0 0 0z" fill="url(#b)"/><path d="m7.12343 14.4541c.0915-.0333.183-.0582.2246-.0665 2.86987-.6239 8.31017-1.6554 11.58767-1.3227.2662.025.5075-.158.549-.4159.1165-.7404.4243-1.9133.6073-2.0796.1248-.1082.3411-.3411.8485 0 .4326.2911 2.3209 2.1545 2.8948 2.7284.1082.1082.2496.1581.3993.1414.4243-.0415 1.3476-.0998 1.9881.025.8485.1664 6.6382 3.4023 7.8361 4.7665.9067 1.0398.9233 1.8717.8818 2.2211-.0167.1164.0083.2329.0748.3327l2.6786 4.2591c.0749.1164.0998.2579.0582.391-.0832.3327-.2995.9483-.7819 1.3476-.1165.0915-.1914.2329-.1997.3826-.0166.4492-.0832 1.3726-.3327 1.6304-.2662.2662-1.1313 1.0315-1.5223 1.3726-.1165.0998-.1747.2495-.1664.3993.025.549.0499 1.88-.3577 2.1462-.5074.341-3.4022.5074-3.7433 0l-2.9364-2.9115c-1.0898-.6405-2.3542-1.0066-3.7018-1.0066-2.1961 0-4.1676.965-5.5068 2.4956-.183.1747-.3411.366-.4576.5656-.0083.0084-.0083.0167-.0166.025-.8485 1.1979-1.3476 2.6536-1.3476 4.2258 0 4.0428 3.2775 7.3203 7.3203 7.3203 10.7226 0 19.4071-8.6928 19.4071-19.4071 0-10.7142-8.6845-19.41542-19.3988-19.41542-7.2454 0-13.5592 3.96794-16.88657 9.84912-.00832 0-.00832 0 0 0z" fill="url(#c)" fill-opacity=".4"/></svg>