<svg width="20" height="18" viewBox="0 0 20 18" fill="none" xmlns="http://www.w3.org/2000/svg">
<path d="M14.8508 5.99518C14.4952 5.78185 14.033 5.78185 13.6419 5.99518L10.8686 7.63073L8.98411 8.69739L6.21079 10.3329C5.85524 10.5463 5.39302 10.5463 5.00191 10.3329L2.79747 9.05294C2.44192 8.83961 2.19303 8.4485 2.19303 8.02184V5.4974C2.19303 5.07074 2.40636 4.67963 2.79747 4.4663L4.96635 3.22186C5.32191 3.00852 5.78413 3.00852 6.17524 3.22186L8.34412 4.4663C8.69967 4.67963 8.94856 5.07074 8.94856 5.4974V7.13295L10.833 6.03073V4.39519C10.833 3.96852 10.6197 3.57741 10.2286 3.36408L6.21079 1.01742C5.85524 0.804089 5.39302 0.804089 5.00191 1.01742L0.913036 3.36408C0.521926 3.57741 0.308594 3.96852 0.308594 4.39519V9.12405C0.308594 9.55072 0.521926 9.94183 0.913036 10.1552L5.00191 12.5018C5.35746 12.7152 5.81968 12.7152 6.21079 12.5018L8.98411 10.9018L10.8686 9.79961L13.6419 8.19961C13.9974 7.98628 14.4596 7.98628 14.8508 8.19961L17.0196 9.44405C17.3752 9.65739 17.6241 10.0485 17.6241 10.4752V12.9996C17.6241 13.4263 17.4107 13.8174 17.0196 14.0307L14.8508 15.3107C14.4952 15.524 14.033 15.524 13.6419 15.3107L11.473 14.0663C11.1174 13.8529 10.8686 13.4618 10.8686 13.0351V11.3996L8.98411 12.5018V14.1374C8.98411 14.564 9.19745 14.9551 9.58856 15.1685L13.6774 17.5151C14.033 17.7285 14.4952 17.7285 14.8863 17.5151L18.9752 15.1685C19.3307 14.9551 19.5796 14.564 19.5796 14.1374V9.4085C19.5796 8.98183 19.3663 8.59072 18.9752 8.37739L14.8508 5.99518Z" fill="#8247E5"/>
</svg>
