<svg fill="none" height="21" viewBox="0 0 24 21" width="24" xmlns="http://www.w3.org/2000/svg"><path d="m18.3483 6.76716c-.4244-.2537-.976-.2537-1.4428 0l-3.31 1.94503-2.2491 1.2685-3.30993 1.94501c-.42436.2537-.97602.2537-1.44281 0l-2.63099-1.5222c-.42436-.2537-.72141-.71879-.72141-1.22619v-3.00211c0-.5074.25462-.97252.72141-1.22622l2.58856-1.47991c.42435-.2537.97601-.2537 1.4428 0l2.58857 1.47991c.4243.2537.7214.71882.7214 1.22622v1.94503l2.2491-1.31078v-1.94504c0-.50739-.2546-.97251-.7214-1.22621l-4.79523-2.790699c-.42436-.253699-.97602-.253699-1.44281 0l-4.88007 2.790699c-.46679.2537-.721402.71882-.721402 1.22621v5.62369c0 .5074.254612.9725.721402 1.2262l4.88007 2.7907c.42436.2537.97602.2537 1.44281 0l3.30993-1.9027 2.2491-1.3108 3.31-1.90277c.4243-.2537.976-.2537 1.4428 0l2.5885 1.47987c.4244.2537.7214.7189.7214 1.2263v3.0021c0 .5074-.2546.9725-.7214 1.2262l-2.5885 1.5222c-.4244.2537-.976.2537-1.4428 0l-2.5886-1.4799c-.4243-.2537-.7214-.7188-.7214-1.2262v-1.9451l-2.2491 1.3108v1.945c0 .5074.2546.9726.7214 1.2263l4.8801 2.7907c.4244.2536.976.2536 1.4428 0l4.8801-2.7907c.4243-.2537.7214-.7189.7214-1.2263v-5.6236c0-.5074-.2546-.97256-.7214-1.22626z" fill="#fcdcbc"/></svg>