<svg width="20" height="18" viewBox="0 0 20 18" fill="none" xmlns="http://www.w3.org/2000/svg">
<path d="M15.1164 5.99518C14.7608 5.78185 14.2986 5.78185 13.9075 5.99518L11.1342 7.63073L9.24974 8.69739L6.47642 10.3329C6.12086 10.5463 5.65864 10.5463 5.26753 10.3329L3.0631 9.05294C2.70754 8.83961 2.45866 8.4485 2.45866 8.02184V5.4974C2.45866 5.07074 2.67199 4.67963 3.0631 4.4663L5.23198 3.22186C5.58753 3.00852 6.04975 3.00852 6.44086 3.22186L8.60974 4.4663C8.9653 4.67963 9.21418 5.07074 9.21418 5.4974V7.13295L11.0986 6.03073V4.39519C11.0986 3.96852 10.8853 3.57741 10.4942 3.36408L6.47642 1.01742C6.12086 0.804089 5.65864 0.804089 5.26753 1.01742L1.17866 3.36408C0.787551 3.57741 0.574219 3.96852 0.574219 4.39519V9.12405C0.574219 9.55072 0.787551 9.94183 1.17866 10.1552L5.26753 12.5018C5.62309 12.7152 6.08531 12.7152 6.47642 12.5018L9.24974 10.9018L11.1342 9.79961L13.9075 8.19961C14.2631 7.98628 14.7253 7.98628 15.1164 8.19961L17.2853 9.44405C17.6408 9.65739 17.8897 10.0485 17.8897 10.4752V12.9996C17.8897 13.4263 17.6764 13.8174 17.2853 14.0307L15.1164 15.3107C14.7608 15.524 14.2986 15.524 13.9075 15.3107L11.7386 14.0663C11.3831 13.8529 11.1342 13.4618 11.1342 13.0351V11.3996L9.24974 12.5018V14.1374C9.24974 14.564 9.46307 14.9551 9.85418 15.1685L13.9431 17.5151C14.2986 17.7285 14.7608 17.7285 15.1519 17.5151L19.2408 15.1685C19.5964 14.9551 19.8453 14.564 19.8453 14.1374V9.4085C19.8453 8.98183 19.6319 8.59072 19.2408 8.37739L15.1164 5.99518Z" fill="#8247E5"/>
</svg>
