<svg width="31" height="31" viewBox="0 0 31 31" fill="none" xmlns="http://www.w3.org/2000/svg">
<g opacity="0.8">
<path d="M29.4465 9.12442C28.9332 9.12442 28.5172 8.7083 28.5172 8.19507V3.43214C28.5172 2.98373 28.1524 2.61896 27.704 2.61896H22.9411C22.4278 2.61896 22.0117 2.20284 22.0117 1.68961C22.0117 1.17637 22.4278 0.760254 22.9411 0.760254H27.704C29.1773 0.760254 30.3759 1.95889 30.3759 3.43214V8.19507C30.3759 8.7083 29.9598 9.12442 29.4465 9.12442Z" fill="white"/>
<path d="M1.56607 9.12442C1.05278 9.12442 0.636719 8.7083 0.636719 8.19507V3.43214C0.636719 1.95889 1.83535 0.760254 3.30861 0.760254H8.07153C8.58483 0.760254 9.00089 1.17637 9.00089 1.68961C9.00089 2.20284 8.58483 2.61896 8.07153 2.61896H3.30861C2.86019 2.61896 2.49542 2.98373 2.49542 3.43214V8.19507C2.49542 8.7083 2.07936 9.12442 1.56607 9.12442Z" fill="white"/>
<path d="M8.07153 30.4994H3.30861C1.83535 30.4994 0.636719 29.3008 0.636719 27.8275V23.0646C0.636719 22.5514 1.05278 22.1353 1.56607 22.1353C2.07936 22.1353 2.49542 22.5514 2.49542 23.0646V27.8275C2.49542 28.2759 2.86019 28.6407 3.30861 28.6407H8.07153C8.58483 28.6407 9.00089 29.0568 9.00089 29.5701C9.00089 30.0833 8.58483 30.4994 8.07153 30.4994Z" fill="white"/>
<path d="M27.704 30.4994H22.9411C22.4278 30.4994 22.0117 30.0833 22.0117 29.5701C22.0117 29.0568 22.4278 28.6407 22.9411 28.6407H27.704C28.1524 28.6407 28.5172 28.2759 28.5172 27.8275V23.0646C28.5172 22.5514 28.9332 22.1353 29.4465 22.1353C29.9598 22.1353 30.3759 22.5514 30.3759 23.0646V27.8275C30.3759 29.3008 29.1773 30.4994 27.704 30.4994Z" fill="white"/>
<path d="M11.9065 14.7004H7.02736C5.5541 14.7004 4.35547 13.5018 4.35547 12.0285V7.14943C4.35547 5.67617 5.5541 4.47754 7.02736 4.47754H11.9065C13.3797 4.47754 14.5783 5.67617 14.5783 7.14943V12.0285C14.5783 13.5018 13.3797 14.7004 11.9065 14.7004ZM7.02736 6.33624C6.57894 6.33624 6.21417 6.70101 6.21417 7.14943V12.0285C6.21417 12.4769 6.57894 12.8417 7.02736 12.8417H11.9065C12.3549 12.8417 12.7196 12.4769 12.7196 12.0285V7.14943C12.7196 6.70101 12.3549 6.33624 11.9065 6.33624H7.02736Z" fill="white"/>
<path d="M11.9065 26.782H7.02736C5.5541 26.782 4.35547 25.5833 4.35547 24.1101V19.231C4.35547 17.7577 5.5541 16.5591 7.02736 16.5591H11.9065C13.3797 16.5591 14.5783 17.7577 14.5783 19.231V24.1101C14.5783 25.5833 13.3797 26.782 11.9065 26.782ZM7.02736 18.4178C6.57894 18.4178 6.21417 18.7826 6.21417 19.231V24.1101C6.21417 24.5585 6.57894 24.9232 7.02736 24.9232H11.9065C12.3549 24.9232 12.7196 24.5585 12.7196 24.1101V19.231C12.7196 18.7826 12.3549 18.4178 11.9065 18.4178H7.02736Z" fill="white"/>
<path d="M23.9885 14.7004H19.1094C17.6361 14.7004 16.4375 13.5018 16.4375 12.0285V7.14943C16.4375 5.67617 17.6361 4.47754 19.1094 4.47754H23.9885C25.4617 4.47754 26.6604 5.67617 26.6604 7.14943V12.0285C26.6604 13.5018 25.4617 14.7004 23.9885 14.7004ZM19.1094 6.33624C18.661 6.33624 18.2962 6.70101 18.2962 7.14943V12.0285C18.2962 12.4769 18.661 12.8417 19.1094 12.8417H23.9885C24.4369 12.8417 24.8017 12.4769 24.8017 12.0285V7.14943C24.8017 6.70101 24.4369 6.33624 23.9885 6.33624H19.1094Z" fill="white"/>
<path d="M25.1502 21.2058H22.943V18.0693C22.943 17.2366 22.2655 16.5591 21.4328 16.5591H17.9477C17.1149 16.5591 16.4375 17.2366 16.4375 18.0693V21.5543C16.4375 22.387 17.1149 23.0645 17.9477 23.0645H21.0843V25.2718C21.0843 26.1045 21.7617 26.782 22.5945 26.782H25.1502C25.9829 26.782 26.6604 26.1045 26.6604 25.2718V22.716C26.6604 21.8833 25.9829 21.2058 25.1502 21.2058ZM18.2962 18.4178H21.0843V21.2058H18.2962V18.4178ZM24.8017 24.9232H22.943V23.0645H24.8017V24.9232Z" fill="white"/>
<path d="M9.92902 10.9834H8.99966C8.48637 10.9834 8.07031 10.5673 8.07031 10.054V9.12466C8.07031 8.61143 8.48637 8.19531 8.99966 8.19531H9.92902C10.4423 8.19531 10.8584 8.61143 10.8584 9.12466V10.054C10.8584 10.5673 10.4423 10.9834 9.92902 10.9834Z" fill="white"/>
<path d="M22.011 10.9834H21.0817C20.5684 10.9834 20.1523 10.5673 20.1523 10.054V9.12466C20.1523 8.61143 20.5684 8.19531 21.0817 8.19531H22.011C22.5243 8.19531 22.9404 8.61143 22.9404 9.12466V10.054C22.9404 10.5673 22.5243 10.9834 22.011 10.9834Z" fill="white"/>
<path d="M9.92902 23.0649H8.99966C8.48637 23.0649 8.07031 22.6488 8.07031 22.1356V21.2062C8.07031 20.693 8.48637 20.2769 8.99966 20.2769H9.92902C10.4423 20.2769 10.8584 20.693 10.8584 21.2062V22.1356C10.8584 22.6488 10.4423 23.0649 9.92902 23.0649Z" fill="white"/>
</g>
</svg>
