<svg fill="none" height="17" viewBox="0 0 16 17" width="16" xmlns="http://www.w3.org/2000/svg"><g fill="#687692"><path clip-rule="evenodd" d="m8.02887 2.3688c-3.52562 0-6.38371 2.85808-6.38371 6.38371 0 3.52559 2.85809 6.38369 6.38371 6.38369 3.52563 0 6.38373-2.8581 6.38373-6.38369 0-3.52563-2.8581-6.38371-6.38373-6.38371zm-7.802308 6.38371c0-4.3091 3.493218-7.802315 7.802308-7.802315 4.30913 0 7.80233 3.493215 7.80233 7.802315 0 4.30909-3.4932 7.80229-7.80233 7.80229-4.30909 0-7.802308-3.4932-7.802308-7.80229z" fill-rule="evenodd"/><path d="m7.18287 10.2658v-.1131c.00222-.38814.0366-.69755.10313-.92822.06876-.23067.16857-.41698.29943-.55893.13086-.14196.28834-.2706.47244-.38594.13751-.08871.26061-.18076.36929-.27613.10868-.09538.19518-.20073.25951-.31607.06432-.11755.09648-.24841.09648-.39258 0-.15304-.0366-.28723-.10979-.40257-.0732-.11533-.1719-.20405-.2961-.26616-.12199-.0621-.25729-.09315-.4059-.09315-.14417 0-.28057.03216-.40922.09648-.12864.0621-.23399.15526-.31606.27947-.08206.12199-.12642.27392-.13308.45579h-1.35741c.01109-.44359.11756-.80956.31939-1.0979.20184-.29056.46911-.50681.80181-.64876.33269-.14417.69977-.21626 1.10123-.21626.44138 0 .83174.0732 1.1711.21958.33935.14417.60551.35377.79847.6288.19301.27503.28941.60662.28941.99477 0 .25951-.0432.49018-.1297.69202-.0843.19961-.20296.37705-.356.53231-.15304.15304-.33381.29167-.5423.41588-.17522.10424-.31939.21292-.43251.32604-.1109.11312-.19407.24398-.24952.39258-.05323.14861-.08096.33159-.08317.54895v.1131zm.65874 2.1293c-.2218 0-.41144-.0776-.56891-.2329-.15526-.1575-.23178-.346-.22957-.5656-.00221-.2173.07431-.4037.22957-.5589.15747-.1553.34711-.2329.56891-.2329.21071 0 .39591.0776.55561.2329.15969.1552.24065.3416.24287.5589-.00222.1464-.04103.2806-.11645.4026-.07319.1198-.16967.2162-.28944.2894-.11978.071-.25064.1065-.39259.1065z"/></g></svg>