<svg fill="none" height="17" viewBox="0 0 19 17" width="19" xmlns="http://www.w3.org/2000/svg"><g clip-rule="evenodd" fill="#b2b7bf" fill-rule="evenodd"><path d="m10.9125 2.59389c-3.40944 0-6.17334 2.76391-6.17334 6.17335 0 .48707-.39485.88191-.88191.88191s-.88191-.39484-.88191-.88191c0-4.38357 3.55359-7.937162 7.93716-7.937162 4.3836 0 7.9372 3.553592 7.9372 7.937162 0 4.38356-3.5536 7.93716-7.9372 7.93716-1.49492 0-2.89582-.4141-4.09121-1.1344-.41719-.2514-.5516-.7934-.30022-1.2105.25137-.4172.79335-.5516 1.21053-.3003.92833.5594 2.01567.8814 3.1809.8814 3.4095 0 6.1734-2.7639 6.1734-6.17336 0-3.40944-2.7639-6.17335-6.1734-6.17335z"/><path d="m6.39918 7.89157c.25059.41766.11516.95938-.30249 1.20997l-2.20477 1.32286c-.41765.2506-.95936.1152-1.20996-.3025l-1.32286-2.20464c-.2506-.41765-.11519-.95937.30246-1.20997.41765-.25061.95937-.11519 1.20998.30246l.86912 1.44846 1.44855-.86913c.41766-.25059.95938-.11516 1.20997.30249z"/></g></svg>