<svg width="18" height="18" viewBox="0 0 18 18" fill="none" xmlns="http://www.w3.org/2000/svg">
<path d="M15.4052 16.8359L15.4049 16.8357L11.5082 12.9224C10.3777 13.6617 9.06488 14.0524 7.69114 14.0524C3.93312 14.0524 0.866667 11.0987 0.866667 7.45954C0.866667 3.82034 3.93312 0.866667 7.69114 0.866667C11.4492 0.866667 14.5156 3.82034 14.5156 7.45954C14.5156 8.97645 13.9773 10.4329 12.9926 11.6064L16.8504 15.479L15.4052 16.8359ZM15.4052 16.8359C15.5962 17.0269 15.8543 17.1333 16.1278 17.1333C16.3879 17.1333 16.6358 17.0367 16.8238 16.8617L16.8239 16.8616M15.4052 16.8359L16.8239 16.8616M16.8239 16.8616C17.2246 16.4877 17.2389 15.8673 16.8506 15.4792L16.8239 16.8616ZM7.69114 2.81843C10.3479 2.81843 12.5034 4.90601 12.5034 7.45954C12.5034 10.0131 10.3479 12.1006 7.69114 12.1006C5.0344 12.1006 2.87885 10.0131 2.87885 7.45954C2.87885 4.90601 5.0344 2.81843 7.69114 2.81843Z" fill="white" stroke="#656565" stroke-width="0.266667"/>
</svg>
