<svg fill="none" height="29" viewBox="0 0 29 29" width="29" xmlns="http://www.w3.org/2000/svg"><g stroke="#b2b7bf" stroke-linecap="round" stroke-linejoin="round" stroke-width="1.75429"><path d="m12.9389 5.35283c0-.72665.589-1.31572 1.3157-1.31572h1.3157c.7267 0 1.3157.58907 1.3157 1.31572l.158 1.10564c.1414.98996 1.2919 1.46651 2.0919.8665l.8935-.67012c.5138-.51382 1.3469-.51382 1.8607 0l.9303.93035c.5139.51382.5139 1.34689 0 1.86071l-.6701.89349c-.6.8-.1234 1.9505.8665 2.0919l1.1057.158c.7266 0 1.3157.589 1.3157 1.3157v1.3157c0 .7266-.5891 1.3157-1.3157 1.3157l-1.1057.158c-.9899.1414-1.4665 1.2919-.8665 2.0919l.6701.8935c.5139.5138.5139 1.3469 0 1.8607l-.9303.9303c-.5138.5138-1.3469.5138-1.8607 0l-.8935-.6701c-.8-.6-1.9505-.1235-2.0919.8665l-.158 1.1057c0 .7266-.589 1.3157-1.3157 1.3157h-1.3157c-.7267 0-1.3157-.5891-1.3157-1.3157l-.158-1.1057c-.1414-.99-1.2919-1.4665-2.0919-.8665l-.89349.6701c-.51382.5138-1.34688.5138-1.8607 0l-.93035-.9303c-.51382-.5138-.51382-1.3469 0-1.8607l.67012-.8935c.60001-.8.12346-1.9505-.8665-2.0919l-1.10565-.158c-.72664 0-1.31571-.5891-1.31571-1.3157v-1.3157c0-.7267.58907-1.3157 1.31571-1.3157l1.10564-.158c.98997-.1414 1.46651-1.2919.8665-2.0919l-.67011-.89349c-.51382-.51382-.51382-1.34689 0-1.86071l.93035-.93035c.51382-.51382 1.34688-.51382 1.8607 0l.89349.67012c.8.60001 1.9505.12346 2.0919-.8665z" opacity=".5"/><circle cx="14.9123" cy="14.5617" opacity=".5" r="2.33905"/></g></svg>