<svg fill="none" height="25" viewBox="0 0 25 25" width="25" xmlns="http://www.w3.org/2000/svg" xmlns:xlink="http://www.w3.org/1999/xlink"><linearGradient id="a"><stop offset="0" stop-color="#ffdfbd"/><stop offset="1" stop-color="#d0a7a8"/></linearGradient><linearGradient id="b" gradientUnits="userSpaceOnUse" x1="2.47217" x2="3.3548" xlink:href="#a" y1="22.7246" y2="2.76364"/><linearGradient id="c" gradientUnits="userSpaceOnUse" x1="8.47217" x2="16.4323" xlink:href="#a" y1="9.72461" y2="10.2878"/><g clip-rule="evenodd" fill-rule="evenodd"><path d="m4.47217 12.7246c0 2.7817 1.41886 5.2324 3.57698 6.6673.45991.3058.58484.9265.27906 1.3864-.30579.4599-.9265.5848-1.38641.279-2.69196-1.7898-4.46963-4.8534-4.46963-8.3327 0-5.52284 4.47715-9.99999 10.00003-9.99999 5.5228 0 10 4.47715 10 9.99999 0 5.5229-4.4772 10-10 10-.2652 0-.5196-.1053-.7071-.2929-.1876-.1875-.2929-.4419-.2929-.7071v-11c0-.5523.4477-.99999 1-.99999s1 .44769 1 .99999v9.9381c3.9463-.4921 7-3.8585 7-7.9381 0-4.41827-3.5818-7.99999-8-7.99999-4.41831 0-8.00003 3.58172-8.00003 7.99999z" fill="url(#b)"/><path d="m11.7651 10.0175c.3905-.39052 1.0237-.39052 1.4142 0l3 3c.3905.3905.3905 1.0237 0 1.4142s-1.0237.3905-1.4142 0l-2.2929-2.2929-2.2929 2.2929c-.39055.3905-1.02371.3905-1.41424 0-.39052-.3905-.39052-1.0237 0-1.4142z" fill="url(#c)"/></g></svg>