<svg fill="none" height="17" viewBox="0 0 21 17" width="21" xmlns="http://www.w3.org/2000/svg"><path clip-rule="evenodd" d="m15.8 16.5412c.3.2.6.2.9.1s.5-.3.6-.7c.7-3.2 2.5-11.49999 3.2-14.39999.1-.2 0-.5-.2-.599999-.3-.2-.5-.2-.7-.2-3.5 1.299999-14.3 5.199999-18.7 6.699999-.3 0-.4.3-.4.6s.2.6.5.6c2 .6 4.5 1.39999 4.5 1.39999s1.2 3.5 1.9 5.3c.1.2.3.4.5.5s.5 0 .6-.1c1-.9 2.6-2.4 2.6-2.4s3 2 4.7 3.2zm-9.2-6.99999 1.4 4.39999.3-2.8s5.4-4.69999 8.5-7.29999c.1-.1.1-.2 0-.3s-.2-.1-.3-.1c-3.5 2.2-9.9 6.1-9.9 6.1z" fill="#9ea2ab" fill-rule="evenodd"/></svg>