<svg width="22" height="18" viewBox="0 0 22 18" fill="none" xmlns="http://www.w3.org/2000/svg">
<g filter="url(#filter0_b_3839_1167)">
<path fill-rule="evenodd" clip-rule="evenodd" d="M16.5584 17.5953C16.8782 17.8084 17.1979 17.8084 17.5177 17.7018C17.8375 17.5953 18.0507 17.3821 18.1573 16.9557C18.9034 13.5448 20.822 4.69777 21.5682 1.60663C21.6748 1.39345 21.5682 1.07368 21.355 0.967088C21.0352 0.753906 20.822 0.753906 20.6089 0.753906C16.8782 2.13959 5.36636 6.29663 0.676363 7.89549C0.356591 7.89549 0.25 8.21527 0.25 8.53504C0.25 8.85481 0.463182 9.17458 0.782954 9.17458C2.91477 9.81413 5.57954 10.6669 5.57954 10.6669C5.57954 10.6669 6.85863 14.3975 7.60477 16.3162C7.71136 16.5294 7.92454 16.7425 8.13772 16.8491C8.3509 16.9557 8.67068 16.8491 8.77727 16.7425C9.84318 15.7832 11.5486 14.1844 11.5486 14.1844C11.5486 14.1844 14.7464 16.3162 16.5584 17.5953ZM6.75204 10.1339L8.24431 14.8239L8.56409 11.8394C8.56409 11.8394 14.32 6.82958 17.6243 4.05822C17.7309 3.95163 17.7309 3.84504 17.6243 3.73845C17.5177 3.63186 17.4111 3.63186 17.3045 3.63186C13.5739 5.97686 6.75204 10.1339 6.75204 10.1339Z" fill="#3F537A"/>
</g>
<defs>
<filter id="filter0_b_3839_1167" x="-79.75" y="-79.2461" width="181.359" height="177.018" filterUnits="userSpaceOnUse" color-interpolation-filters="sRGB">
<feFlood flood-opacity="0" result="BackgroundImageFix"/>
<feGaussianBlur in="BackgroundImage" stdDeviation="40"/>
<feComposite in2="SourceAlpha" operator="in" result="effect1_backgroundBlur_3839_1167"/>
<feBlend mode="normal" in="SourceGraphic" in2="effect1_backgroundBlur_3839_1167" result="shape"/>
</filter>
</defs>
</svg>
