<svg width="21" height="16" viewBox="0 0 21 16" fill="none" xmlns="http://www.w3.org/2000/svg">
<path fill-rule="evenodd" clip-rule="evenodd" d="M15.3 15.8C15.6 16 15.9 16 16.2 15.9C16.5 15.8 16.7 15.6 16.8 15.2C17.5 12 19.3 3.7 20 0.8C20.1 0.6 20 0.3 19.8 0.2C19.5 -1.93715e-07 19.3 0 19.1 0C15.6 1.3 4.8 5.2 0.4 6.7C0.1 6.7 0 7 0 7.3C0 7.6 0.2 7.9 0.5 7.9C2.5 8.5 5 9.3 5 9.3C5 9.3 6.2 12.8 6.9 14.6C7 14.8 7.2 15 7.4 15.1C7.6 15.2 7.9 15.1 8 15C9 14.1 10.6 12.6 10.6 12.6C10.6 12.6 13.6 14.6 15.3 15.8ZM6.1 8.8L7.5 13.2L7.8 10.4C7.8 10.4 13.2 5.7 16.3 3.1C16.4 3 16.4 2.9 16.3 2.8C16.2 2.7 16.1 2.7 16 2.7C12.5 4.9 6.1 8.8 6.1 8.8Z" fill="#9EA2AB"/>
</svg>
