<svg width="21" height="16" viewBox="0 0 21 16" fill="none" xmlns="http://www.w3.org/2000/svg">
<path d="M6.4 16C14 16 18.1 9.9 18.1 4.6C18.1 4.5 18.1 4.2 18.1 4.1C18.9 3.5 19.6 2.8 20.2 2C19.4 2.3 18.7 2.5 17.8 2.6C18.6 2.1 19.3 1.3 19.6 0.4C18.8 0.8 17.9 1.2 17 1.4C16.2 0.5 15.1 0 14 0C11.7 0 9.9 1.8 9.9 4C9.9 4.3 9.9 4.6 10 4.9C6.5 4.8 3.5 3.1 1.5 0.7C1.1 1.3 0.9 2 0.9 2.8C0.9 4.2 1.7 5.4 2.7 6.2C2 6.2 1.4 6 0.9 5.7C0.9 5.7 0.9 5.7 0.9 5.8C0.9 7.7 2.4 9.4 4.2 9.8C3.8 9.9 3.5 9.9 3.1 9.9C2.9 9.9 2.6 9.9 2.3 9.8C2.8 11.4 4.4 12.6 6.1 12.6C4.7 13.6 2.9 14.3 1 14.3C0.7 14.3 0.3 14.3 0 14.2C1.9 15.3 4.1 16 6.4 16Z" fill="#9EA2AB"/>
</svg>
