<svg width="22" height="18" viewBox="0 0 22 18" fill="none" xmlns="http://www.w3.org/2000/svg">
<g filter="url(#filter0_b_3839_1165)">
<path d="M7.08744 17.8084C15.1883 17.8084 19.5586 11.3064 19.5586 5.65708C19.5586 5.55049 19.5586 5.23072 19.5586 5.12413C20.4113 4.48459 21.1574 3.73845 21.797 2.88572C20.9442 3.2055 20.1981 3.41868 19.2388 3.52527C20.0915 2.99231 20.8377 2.13959 21.1574 1.18027C20.3047 1.60663 19.3454 2.033 18.3861 2.24618C17.5333 1.28686 16.3608 0.753906 15.1883 0.753906C12.7368 0.753906 10.8181 2.67254 10.8181 5.01754C10.8181 5.33731 10.8181 5.65708 10.9247 5.97686C7.19403 5.87027 3.9963 4.05822 1.86449 1.50004C1.43812 2.13959 1.22494 2.88572 1.22494 3.73845C1.22494 5.23072 2.07767 6.50981 3.14358 7.36254C2.39744 7.36254 1.7579 7.14936 1.22494 6.82958C1.22494 6.82958 1.22494 6.82958 1.22494 6.93617C1.22494 8.9614 2.8238 10.7734 4.74244 11.1998C4.31608 11.3064 3.9963 11.3064 3.56994 11.3064C3.35676 11.3064 3.03699 11.3064 2.71721 11.1998C3.25017 12.9053 4.95562 14.1844 6.76767 14.1844C5.27539 15.2503 3.35676 15.9964 1.33153 15.9964C1.01176 15.9964 0.585398 15.9964 0.265625 15.8898C2.29085 17.0623 4.63585 17.8084 7.08744 17.8084Z" fill="#3F537A"/>
</g>
<defs>
<filter id="filter0_b_3839_1165" x="-79.7344" y="-79.2461" width="181.531" height="177.055" filterUnits="userSpaceOnUse" color-interpolation-filters="sRGB">
<feFlood flood-opacity="0" result="BackgroundImageFix"/>
<feGaussianBlur in="BackgroundImage" stdDeviation="40"/>
<feComposite in2="SourceAlpha" operator="in" result="effect1_backgroundBlur_3839_1165"/>
<feBlend mode="normal" in="SourceGraphic" in2="effect1_backgroundBlur_3839_1165" result="shape"/>
</filter>
</defs>
</svg>
