<svg fill="none" height="17" viewBox="0 0 21 17" width="21" xmlns="http://www.w3.org/2000/svg"><path d="m6.9 16.7412c7.6 0 11.7-6.1 11.7-11.39999 0-.1 0-.4 0-.5.8-.6 1.5-1.3 2.1-2.1-.8.3-1.5.5-2.4.6.8-.5 1.5-1.3 1.8-2.2-.8.4-1.7.8-2.6 1-.8-.9-1.9-1.399999-3-1.399999-2.3 0-4.1 1.799999-4.1 3.999999 0 .3 0 .6.1.9-3.5-.1-6.5-1.8-8.5-4.2-.4.6-.6 1.3-.6 2.1 0 1.4.8 2.6 1.8 3.4-.7 0-1.3-.2-1.8-.5v.1c0 1.9 1.5 3.59999 3.3 3.99999-.4.1-.7.1-1.1.1-.2 0-.5 0-.8-.1.5 1.6 2.1 2.8 3.8 2.8-1.4 1-3.2 1.7-5.1 1.7-.3 0-.7 0-1-.1 1.9 1.1 4.1 1.8 6.4 1.8z" fill="#9ea2ab"/></svg>