<svg width="56" height="55" viewBox="0 0 56 55" fill="none" xmlns="http://www.w3.org/2000/svg">
<path d="M53.5158 36.6679C50.4775 48.8551 38.1338 56.272 25.9452 53.2329C13.7617 50.1945 6.34478 37.8501 9.38443 25.6639C12.4214 13.4754 24.7651 6.05794 36.9499 9.09626C49.1377 12.1346 56.5541 24.4803 53.5155 36.6681L53.5157 36.6679H53.5158Z" stroke="url(#paint0_linear)" stroke-width="2"/>
<path fill-rule="evenodd" clip-rule="evenodd" d="M33.4702 33.1867C33.3575 33.1951 32.7752 33.2299 31.4763 33.2299C30.4432 33.2299 29.7097 33.1989 29.4524 33.1867C25.46 33.011 22.48 32.316 22.48 31.4839C22.48 30.6518 25.46 29.9578 29.4524 29.7793V32.4945C29.7135 32.5133 30.4611 32.5574 31.4941 32.5574C32.7338 32.5574 33.3546 32.5058 33.4664 32.4954V29.7812C37.4504 29.9587 40.4238 30.6537 40.4238 31.4839C40.4238 32.3142 37.4513 33.0091 33.4664 33.1857L33.4702 33.1867ZM33.4702 29.5004V27.0708H39.0301V23.3657H23.8925V27.0708H29.4514V29.4995C24.9331 29.707 21.5352 30.602 21.5352 31.6746C21.5352 32.7471 24.9331 33.6412 29.4514 33.8497V41.6354H33.4692V33.8469C37.9772 33.6393 41.3695 32.7452 41.3695 31.6736C41.3695 30.602 37.9801 29.708 33.4692 29.4995L33.4702 29.5004Z" fill="#9C9DA9"/>
<mask id="path-3-outside-1" maskUnits="userSpaceOnUse" x="-0.171875" y="0.0561523" width="25" height="25" fill="black">
<rect fill="white" x="-0.171875" y="0.0561523" width="25" height="25"/>
<path d="M2.08558 15.1334C2.08556 15.1334 2.08555 15.1334 2.08555 15.1334C3.49192 20.7745 9.20546 24.2076 14.8472 22.8009C20.4867 21.3945 23.9197 15.6806 22.5128 10.04C21.107 4.39822 15.3935 0.964889 9.75344 2.37125C4.1121 3.77759 0.679237 9.49204 2.08566 15.1334C2.08567 15.1334 2.08563 15.1334 2.0856 15.1334L2.0856 15.1334C2.0856 15.1334 2.08559 15.1334 2.08558 15.1334Z"/>
</mask>
<path d="M2.08558 15.1334C2.08556 15.1334 2.08555 15.1334 2.08555 15.1334C3.49192 20.7745 9.20546 24.2076 14.8472 22.8009C20.4867 21.3945 23.9197 15.6806 22.5128 10.04C21.107 4.39822 15.3935 0.964889 9.75344 2.37125C4.1121 3.77759 0.679237 9.49204 2.08566 15.1334C2.08567 15.1334 2.08563 15.1334 2.0856 15.1334L2.0856 15.1334C2.0856 15.1334 2.08559 15.1334 2.08558 15.1334Z" fill="#0D121B"/>
<path d="M2.08558 15.1334C2.08556 15.1334 2.08555 15.1334 2.08555 15.1334C3.49192 20.7745 9.20546 24.2076 14.8472 22.8009C20.4867 21.3945 23.9197 15.6806 22.5128 10.04C21.107 4.39822 15.3935 0.964889 9.75344 2.37125C4.1121 3.77759 0.679237 9.49204 2.08566 15.1334C2.08567 15.1334 2.08563 15.1334 2.0856 15.1334L2.0856 15.1334C2.0856 15.1334 2.08559 15.1334 2.08558 15.1334Z" fill="black" fill-opacity="0.2"/>
<path d="M14.8472 22.8009L15.2247 24.3144L15.2246 24.3144L14.8472 22.8009ZM22.5128 10.04L20.9992 10.4175L20.9992 10.4171L22.5128 10.04ZM9.75344 2.37125L10.1308 3.8848L10.1308 3.88482L9.75344 2.37125ZM2.08566 15.1334L0.572096 15.5107L2.08566 15.1334ZM2.0856 15.1334L0.982592 16.2364L2.0856 15.1334ZM2.0856 15.1334L0.98259 16.2364L2.0856 15.1334ZM2.08555 15.1334L0.571983 15.5108L2.08555 15.1334ZM3.59912 14.7561C4.79707 19.5612 9.66393 22.4856 14.4698 21.2873L15.2246 24.3144C8.74698 25.9296 2.18678 21.9879 0.571983 15.5108L3.59912 14.7561ZM14.4698 21.2873C19.2732 20.0895 22.1977 15.2223 20.9992 10.4175L24.0263 9.66244C25.6418 16.139 21.7001 22.6996 15.2247 24.3144L14.4698 21.2873ZM20.9992 10.4171C19.8017 5.61133 14.9348 2.68693 10.1308 3.8848L9.37603 0.857694C15.8522 -0.757148 22.4124 3.18512 24.0264 9.66282L20.9992 10.4171ZM10.1308 3.88482C5.32557 5.08272 2.40115 9.95041 3.59923 14.756L0.572096 15.5107C-1.04268 9.03367 2.89863 2.47246 9.37612 0.857673L10.1308 3.88482ZM0.982592 16.2364L0.98259 16.2364L3.18862 14.0304V14.0304L0.982592 16.2364ZM3.59923 14.756C3.78651 15.5072 3.3976 16.1684 2.88236 16.4745C2.35749 16.7863 1.55613 16.81 0.982592 16.2364L3.18862 14.0304C2.6151 13.4569 1.81378 13.4805 1.28893 13.7923C0.773724 14.0984 0.384829 14.7596 0.572096 15.5107L3.59923 14.756ZM0.98259 16.2364C1.27512 16.529 1.67188 16.6933 2.08558 16.6933V13.5735C2.4993 13.5735 2.89607 13.7379 3.18862 14.0304L0.98259 16.2364ZM0.571983 15.5108C0.330671 14.5429 1.05435 13.5735 2.08558 13.5735V16.6933C3.11677 16.6933 3.84042 15.724 3.59912 14.7561L0.571983 15.5108Z" fill="#1F2534" mask="url(#path-3-outside-1)"/>
<g filter="url(#filter0_d)">
<path d="M8.70147 17.1084H16.1958V14.9493H12.3094V14.8925L16.0594 10.1198V8.38113H8.84352V10.5402H12.7469V10.597L8.70147 15.5232V17.1084Z" fill="url(#paint1_linear)"/>
</g>
<defs>
<filter id="filter0_d" x="4.70312" y="8.38135" width="15.4943" height="16.7273" filterUnits="userSpaceOnUse" color-interpolation-filters="sRGB">
<feFlood flood-opacity="0" result="BackgroundImageFix"/>
<feColorMatrix in="SourceAlpha" type="matrix" values="0 0 0 0 0 0 0 0 0 0 0 0 0 0 0 0 0 0 127 0" result="hardAlpha"/>
<feOffset dy="4"/>
<feGaussianBlur stdDeviation="2"/>
<feColorMatrix type="matrix" values="0 0 0 0 0 0 0 0 0 0 0 0 0 0 0 0 0 0 0.25 0"/>
<feBlend mode="normal" in2="BackgroundImageFix" result="effect1_dropShadow"/>
<feBlend mode="normal" in="SourceGraphic" in2="effect1_dropShadow" result="shape"/>
</filter>
<linearGradient id="paint0_linear" x1="8.70312" y1="8.41553" x2="54.1076" y2="10.423" gradientUnits="userSpaceOnUse">
<stop stop-color="#FFDFBD"/>
<stop offset="1" stop-color="#D0A7A8"/>
</linearGradient>
<linearGradient id="paint1_linear" x1="3.66016" y1="5.1084" x2="21.1741" y2="6.24967" gradientUnits="userSpaceOnUse">
<stop stop-color="#FFDFBD"/>
<stop offset="1" stop-color="#D0A7A8"/>
</linearGradient>
</defs>
</svg>
