<svg width="21" height="17" viewBox="0 0 21 17" fill="none" xmlns="http://www.w3.org/2000/svg">
<path d="M20.2298 14.2553L11.4552 0.56161C11.2334 0.215526 10.8353 0.00390625 10.4057 0.00390625C9.97625 0.00390625 9.57808 0.215489 9.35633 0.56161L0.581776 14.2553C0.353572 14.6115 0.346814 15.0557 0.564159 15.4178C0.781503 15.78 1.1892 16.0039 1.63115 16.0039H19.1804C19.6223 16.0039 20.03 15.7799 20.2474 15.4178C20.4647 15.0557 20.458 14.6115 20.2298 14.2553ZM10.4123 4.74072C10.9163 4.74072 11.3427 5.00825 11.3427 5.48244C11.3427 6.92938 11.1618 9.00867 11.1618 10.4556C11.1618 10.8326 10.7225 10.9906 10.4123 10.9906C9.99886 10.9906 9.64996 10.8325 9.64996 10.4556C9.64996 9.00867 9.4691 6.92938 9.4691 5.48244C9.4691 5.00825 9.88254 4.74072 10.4123 4.74072ZM10.4253 13.7022C9.85672 13.7022 9.43027 13.2645 9.43027 12.7659C9.43027 12.2552 9.85668 11.8297 10.4253 11.8297C10.955 11.8297 11.4073 12.2552 11.4073 12.7659C11.4073 13.2645 10.955 13.7022 10.4253 13.7022Z" fill="#FFC738"/>
</svg>
