<svg width="44" height="41" viewBox="0 0 44 41" fill="none" xmlns="http://www.w3.org/2000/svg">
<path d="M18.5307 6.66424C20.277 3.88999 24.321 3.88999 26.0674 6.66424L36.5907 23.382C38.4571 26.3472 36.3261 30.2068 32.8223 30.2068H11.7757C8.27199 30.2068 6.14092 26.3472 8.00742 23.382L18.5307 6.66424Z" fill="#EEBA00"/>
<path d="M23.9263 10.8337V17.2011C23.9263 17.8838 23.8854 18.5629 23.8038 19.2382C23.7222 19.9061 23.6146 20.5889 23.481 21.2865H21.1433C21.0097 20.5889 20.9021 19.9061 20.8205 19.2382C20.7388 18.5629 20.698 17.8838 20.698 17.2011V10.8337H23.9263ZM20.3195 25.305C20.3195 25.0379 20.3678 24.7893 20.4643 24.5592C20.5682 24.3292 20.7054 24.1288 20.8761 23.9581C21.0542 23.7874 21.262 23.6538 21.4995 23.5573C21.737 23.4534 21.9967 23.4015 22.2787 23.4015C22.5533 23.4015 22.8094 23.4534 23.0468 23.5573C23.2843 23.6538 23.4921 23.7874 23.6702 23.9581C23.8483 24.1288 23.9856 24.3292 24.0821 24.5592C24.186 24.7893 24.2379 25.0379 24.2379 25.305C24.2379 25.5722 24.186 25.8245 24.0821 26.062C23.9856 26.2921 23.8483 26.4924 23.6702 26.6631C23.4921 26.8338 23.2843 26.9674 23.0468 27.0639C22.8094 27.1603 22.5533 27.2086 22.2787 27.2086C21.9967 27.2086 21.737 27.1603 21.4995 27.0639C21.262 26.9674 21.0542 26.8338 20.8761 26.6631C20.7054 26.4924 20.5682 26.2921 20.4643 26.062C20.3678 25.8245 20.3195 25.5722 20.3195 25.305Z" fill="#020717"/>
</svg>
