<svg width="34" height="32" viewBox="0 0 34 32" fill="none" xmlns="http://www.w3.org/2000/svg">
<path d="M33.343 27.691L18.9103 1.26928C18.5454 0.601523 17.8906 0.193207 17.1841 0.193207C16.4777 0.193207 15.8228 0.601452 15.458 1.26928L1.02535 27.691C0.649997 28.3783 0.638881 29.2353 0.996376 29.934C1.35387 30.6329 2.02446 31.0649 2.7514 31.0649H31.6169C32.3438 31.0649 33.0144 30.6327 33.372 29.934C33.7294 29.2353 33.7184 28.3783 33.343 27.691ZM17.1949 9.33278C18.0239 9.33278 18.7252 9.84897 18.7252 10.7639C18.7252 13.5558 18.4277 17.5677 18.4277 20.3595C18.4277 21.0869 17.7051 21.3918 17.1949 21.3918C16.5149 21.3918 15.941 21.0868 15.941 20.3595C15.941 17.5677 15.6435 13.5558 15.6435 10.7639C15.6435 9.84897 16.3235 9.33278 17.1949 9.33278ZM17.2162 26.6238C16.2811 26.6238 15.5796 25.7792 15.5796 24.8172C15.5796 23.8318 16.281 23.0108 17.2162 23.0108C18.0875 23.0108 18.8315 23.8318 18.8315 24.8172C18.8315 25.7792 18.0875 26.6238 17.2162 26.6238Z" fill="#FFDFBD"/>
</svg>
