<svg width="30" height="28" viewBox="0 0 30 28" fill="none" xmlns="http://www.w3.org/2000/svg">
<path d="M12.2264 4.25362C13.433 2.33673 16.2272 2.33672 17.4339 4.25362L24.705 15.8049C25.9947 17.8537 24.5222 20.5205 22.1013 20.5205H7.55895C5.13801 20.5205 3.66553 17.8537 4.9552 15.8049L12.2264 4.25362Z" fill="#EEBA00"/>
<path d="M15.9531 6.93295V11.3326C15.9531 11.8043 15.9249 12.2735 15.8685 12.7401C15.8121 13.2016 15.7378 13.6734 15.6455 14.1554H14.0302C13.9379 13.6734 13.8636 13.2016 13.8072 12.7401C13.7508 12.2735 13.7226 11.8043 13.7226 11.3326V6.93295H15.9531ZM13.4611 16.9321C13.4611 16.7475 13.4944 16.5757 13.561 16.4167C13.6328 16.2578 13.7277 16.1193 13.8456 16.0014C13.9687 15.8834 14.1123 15.7911 14.2764 15.7245C14.4405 15.6527 14.6199 15.6168 14.8148 15.6168C15.0045 15.6168 15.1814 15.6527 15.3455 15.7245C15.5096 15.7911 15.6532 15.8834 15.7762 16.0014C15.8993 16.1193 15.9942 16.2578 16.0608 16.4167C16.1326 16.5757 16.1685 16.7475 16.1685 16.9321C16.1685 17.1167 16.1326 17.291 16.0608 17.4551C15.9942 17.6141 15.8993 17.7525 15.7762 17.8704C15.6532 17.9884 15.5096 18.0807 15.3455 18.1473C15.1814 18.214 15.0045 18.2473 14.8148 18.2473C14.6199 18.2473 14.4405 18.214 14.2764 18.1473C14.1123 18.0807 13.9687 17.9884 13.8456 17.8704C13.7277 17.7525 13.6328 17.6141 13.561 17.4551C13.4944 17.291 13.4611 17.1167 13.4611 16.9321Z" fill="#020717"/>
</svg>
