<svg fill="none" height="36" viewBox="0 0 36 36" width="36" xmlns="http://www.w3.org/2000/svg" xmlns:xlink="http://www.w3.org/1999/xlink"><filter id="a" color-interpolation-filters="sRGB" filterUnits="userSpaceOnUse" height="34.6357" width="34.6328" x=".773438" y=".583008"><feFlood flood-opacity="0" result="BackgroundImageFix"/><feColorMatrix in="SourceAlpha" result="hardAlpha" type="matrix" values="0 0 0 0 0 0 0 0 0 0 0 0 0 0 0 0 0 0 127 0"/><feOffset dy="4"/><feGaussianBlur stdDeviation="2"/><feComposite in2="hardAlpha" operator="out"/><feColorMatrix type="matrix" values="0 0 0 0 0 0 0 0 0 0 0 0 0 0 0 0 0 0 0.25 0"/><feBlend in2="BackgroundImageFix" mode="normal" result="effect1_dropShadow_5133_3754"/><feBlend in="SourceGraphic" in2="effect1_dropShadow_5133_3754" mode="normal" result="shape"/></filter><g filter="url(#a)"><circle cx="18.0911" cy="13.9007" fill="#eeba00" r="13.3177"/><path d="m19.7115 6.41313v6.34807c0 .6807-.0407 1.3577-.1221 2.031-.0814.6659-.1886 1.3465-.3218 2.042h-2.3306c-.1332-.6955-.2405-1.3761-.3218-2.042-.0814-.6733-.1221-1.3503-.1221-2.031v-6.34807zm-3.5958 14.42747c0-.2663.0481-.5142.1443-.7436.1036-.2293.2405-.4291.4106-.5993.1776-.1701.3848-.3033.6215-.3995.2368-.1036.4957-.1554.7769-.1554.2738 0 .529.0518.7658.1554.2367.0962.4439.2294.6215.3995.1775.1702.3144.37.4106.5993.1036.2294.1554.4773.1554.7436 0 .2664-.0518.5179-.1554.7547-.0962.2293-.2331.4291-.4106.5993-.1776.1701-.3848.3033-.6215.3995-.2368.0962-.492.1443-.7658.1443-.2812 0-.5401-.0481-.7769-.1443-.2367-.0962-.4439-.2294-.6215-.3995-.1701-.1702-.307-.37-.4106-.5993-.0962-.2368-.1443-.4883-.1443-.7547z" fill="#000"/></g></svg>