<svg fill="none" height="16" viewBox="0 0 17 16" width="17" xmlns="http://www.w3.org/2000/svg"><path d="m16.7483 13.7008-7.18155-12.40177c-.18153-.31343-.50735-.505085-.8589-.505085-.35151 0-.67739.191622-.85888.505085l-7.181475 12.40177c-.186772.3226-.192303.7249-.014418 1.0528.177883.3281.511563.5308.873273.5308h14.36305c.3617 0 .6953-.2028.8733-.5308.1778-.3279.1723-.7302-.0144-1.0528zm-8.0351-8.61693c.4125 0 .76148.24229.76148.67174 0 1.31043-.14806 3.19355-.14806 4.50399 0 .3414-.35954.4845-.61342.4845-.33835 0-.62391-.1432-.62391-.4845 0-1.31044-.14802-3.19356-.14802-4.50399 0-.42945.33837-.67174.77193-.67174zm.01064 8.11603c-.46533 0-.81435-.3964-.81435-.848 0-.4625.34899-.8478.81435-.8478.43353 0 .80371.3853.80371.8478 0 .4516-.37018.848-.80371.848z" fill="#ffc738"/></svg>