<svg fill="none" height="61" viewBox="0 0 66 61" width="66" xmlns="http://www.w3.org/2000/svg" xmlns:xlink="http://www.w3.org/1999/xlink"><linearGradient id="a"><stop offset="0" stop-color="#ffdfbd"/><stop offset="1" stop-color="#d0a7a8"/></linearGradient><linearGradient id="b" gradientUnits="userSpaceOnUse" x1="35.9135" x2="34.4505" xlink:href="#a" y1="3.57714" y2="60.0636"/><linearGradient id="c"><stop offset="0" stop-color="#717b90"/><stop offset=".854167" stop-color="#5f6779"/></linearGradient><linearGradient id="d" gradientUnits="userSpaceOnUse" x1="36.9506" x2="37.6539" xlink:href="#c" y1="10.6904" y2="53.0135"/><linearGradient id="e" gradientUnits="userSpaceOnUse" x1="38" x2="38.8043" xlink:href="#c" y1="10" y2="53.9975"/><linearGradient id="f" gradientUnits="userSpaceOnUse" x1="38" x2="38" y1="10" y2="54"><stop offset="0" stop-color="#fff"/><stop offset="1" stop-color="#fff" stop-opacity="0"/></linearGradient><linearGradient id="g" gradientUnits="userSpaceOnUse" x1="27.1172" x2="2.08792" xlink:href="#a" y1="2.60547" y2="3.71209"/><linearGradient id="h" gradientUnits="userSpaceOnUse" x1="14.5829" x2="14.9559" xlink:href="#c" y1="3.92188" y2="26.3689"/><mask id="i" fill="#000" height="29" maskUnits="userSpaceOnUse" width="29" x=".117188" y=".605469"><path d="m.117188.605469h29v29h-29z" fill="#fff"/><path d="m2.41422 18.1796c-.00003 0-.00004 0-.00004 0 1.6749 6.7182 8.47932 10.8068 15.19832 9.1315 6.7162-1.6749 10.8047-8.4798 9.1291-15.1974-1.6741-6.71898-8.4786-10.80785-15.1955-9.13298-6.71844 1.67487-10.806744 8.48038-9.13178 15.19888.00001 0-.00005 0-.00008 0s-.00001 0-.00002 0z" fill="#000"/></mask><circle cx="36.9474" cy="31.8527" fill="#141522" r="26.9715" stroke="url(#b)" stroke-width="2.60808"/><circle cx="36.9506" cy="31.852" fill="url(#d)" r="21.1615"/><circle cx="36.9506" cy="31.852" fill="#131621" r="21.1615"/><path d="m18.0069 21.1626c.1008-.0377.2017-.066.2475-.0754 3.1632-.7071 9.1594-1.8761 12.7718-1.499.2934.0283.5593-.1792.6051-.4714.1284-.8391.4676-2.1684.6693-2.357.1375-.1226.3759-.3865.9352 0 .4768.33 2.558 2.4418 3.1907 3.0924.1191.1225.275.1791.44.1602.4676-.0471 1.4853-.1131 2.1913.0283.9352.1886 7.3165 3.856 8.6368 5.4022.9993 1.1785 1.0177 2.1213.9718 2.5172-.0183.132.0092.264.0826.3772l2.9522 4.827c.0825.132.11.2923.0642.4432-.0917.3771-.3301 1.0747-.8618 1.5273-.1284.1037-.2109.264-.2201.4337-.0183.5091-.0917 1.5556-.3667 1.8478-.2934.3017-1.2469 1.1691-1.6779 1.5556-.1283.1132-.1925.2829-.1833.4526.0275.6222.055 2.1307-.3943 2.4324-.5593.3865-3.7499.5751-4.1258 0l-3.2365-3.2998c-1.2011-.7259-2.5947-1.1408-4.08-1.1408-2.4205 0-4.5934 1.0937-6.0696 2.8284-.2017.198-.3759.4148-.5042.6411-.0092.0094-.0092.0189-.0184.0283-.9352 1.3576-1.4853 3.0075-1.4853 4.7893 0 4.582 3.6124 8.2966 8.0683 8.2966 11.8183 0 21.3902-9.8522 21.3902-21.9953s-9.5719-22.0047-21.381-22.0047c-7.9858 0-14.9447 4.4971-18.6121 11.1626-.0092 0-.0092 0 0 0z" fill="url(#e)"/><path d="m18.0069 21.1626c.1008-.0377.2017-.066.2475-.0754 3.1632-.7071 9.1594-1.8761 12.7718-1.499.2934.0283.5593-.1792.6051-.4714.1284-.8391.4676-2.1684.6693-2.357.1375-.1226.3759-.3865.9352 0 .4768.33 2.558 2.4418 3.1907 3.0924.1191.1225.275.1791.44.1602.4676-.0471 1.4853-.1131 2.1913.0283.9352.1886 7.3165 3.856 8.6368 5.4022.9993 1.1785 1.0177 2.1213.9718 2.5172-.0183.132.0092.264.0826.3772l2.9522 4.827c.0825.132.11.2923.0642.4432-.0917.3771-.3301 1.0747-.8618 1.5273-.1284.1037-.2109.264-.2201.4337-.0183.5091-.0917 1.5556-.3667 1.8478-.2934.3017-1.2469 1.1691-1.6779 1.5556-.1283.1132-.1925.2829-.1833.4526.0275.6222.055 2.1307-.3943 2.4324-.5593.3865-3.7499.5751-4.1258 0l-3.2365-3.2998c-1.2011-.7259-2.5947-1.1408-4.08-1.1408-2.4205 0-4.5934 1.0937-6.0696 2.8284-.2017.198-.3759.4148-.5042.6411-.0092.0094-.0092.0189-.0184.0283-.9352 1.3576-1.4853 3.0075-1.4853 4.7893 0 4.582 3.6124 8.2966 8.0683 8.2966 11.8183 0 21.3902-9.8522 21.3902-21.9953s-9.5719-22.0047-21.381-22.0047c-7.9858 0-14.9447 4.4971-18.6121 11.1626-.0092 0-.0092 0 0 0z" fill="url(#f)" fill-opacity=".2"/><path d="m2.41422 18.1796c-.00003 0-.00004 0-.00004 0 1.6749 6.7182 8.47932 10.8068 15.19832 9.1315 6.7162-1.6749 10.8047-8.4798 9.1291-15.1974-1.6741-6.71898-8.4786-10.80785-15.1955-9.13298-6.71844 1.67487-10.806744 8.48038-9.13178 15.19888.00001 0-.00005 0-.00008 0s-.00001 0-.00002 0z" fill="#121320"/><path d="m17.6125 27.3111.4125 1.6542zm9.1291-15.1974-1.6542.4126-.0001-.0004zm-15.1955-9.13298.4125 1.65426-.0001.00003zm-9.13178 15.19888 1.65427-.4125zm-.00008 0-1.20555 1.2056zm0 0-1.20556 1.2056zm-.00006 0 1.65428-.4124zm1.65428-.4124c1.44709 5.8045 7.32614 9.3371 13.13154 7.8896l.825 3.3085c-7.6326 1.9031-15.3624-2.7413-17.265097-10.3732zm13.13154 7.8896c5.8024-1.447 9.3351-7.3265 7.8874-13.1305l3.3084-.8253c1.9035 7.6313-2.7409 15.3616-10.3708 17.2643zm7.8873-13.1309c-1.4465-5.8053-7.3256-9.33792-13.1287-7.89092l-.825-3.30852c7.6308-1.902741 15.3606 2.74238 17.2624 10.37494zm-13.1288-7.89089c-5.80456 1.44704-9.33714 7.32709-7.88991 13.13209l-3.308554.8249c-1.902676-7.6319 2.741344-15.36287 10.373664-17.26556zm-10.74981 14.75019h-.00001l2.41112-2.4112v.0001zm2.8599-1.6181c.20469.8211-.22038 1.5437-.78352 1.8783-.57366.3408-1.44952.3666-2.07638-.2602l2.41111-2.4111c-.62683-.6269-1.50265-.601-2.07628-.2603-.56311.3346-.988159 1.0572-.783484 1.8782zm-2.85991 1.6181c.31973.3197.75338.4993 1.20554.4993v-3.4098c.45218 0 .88584.1796 1.20558.4993zm-.448777-.7931c-.263746-1.058.527217-2.1174 1.654317-2.1174v3.4098c1.12705 0 1.91798-1.0594 1.65424-2.1173z" fill="url(#g)" mask="url(#i)"/><circle cx="14.5794" cy="15.1458" fill="#161323" r="14.4388"/><circle cx="14.5829" cy="15.1454" fill="url(#h)" r="11.2235"/><circle cx="14.5829" cy="15.1454" fill="#ddc1a7" r="11.2235"/><path d="m11.5632 19.7197v-1.3513l3.4485-4.1993v-.0485h-3.3274v-1.8405h6.1512v1.4821l-3.1967 4.0686v.0484h3.313v1.8405z" fill="#141522"/></svg>