<svg width="48" height="47" viewBox="0 0 48 47" fill="none" xmlns="http://www.w3.org/2000/svg">
<path d="M45.7282 30.6322C43.1382 41.0213 32.6158 47.3439 22.2255 44.7532C11.8395 42.1631 5.51695 31.6401 8.10813 21.2518C10.697 10.8616 21.2195 4.5386 31.6065 7.12864C41.9961 9.71867 48.3183 20.2429 45.7279 30.6324L45.7281 30.6322H45.7282Z" stroke="url(#paint0_linear)" stroke-width="1.70491"/>
<path d="M33.3791 24.3527C33.6553 22.506 32.2494 21.5133 30.3268 20.8511L30.9505 18.3495L29.4277 17.9701L28.8206 20.4058C28.4202 20.3059 28.0091 20.2118 27.6005 20.1186L28.2121 17.6668L26.6902 17.2874L26.0662 19.7881C25.7349 19.7127 25.4095 19.6381 25.0939 19.5596L25.0956 19.5517L22.9957 19.0273L22.5906 20.6537C22.5906 20.6537 23.7204 20.9127 23.6966 20.9287C24.3132 21.0826 24.4247 21.4908 24.4062 21.8143L23.6957 24.6642C23.7382 24.675 23.7933 24.6906 23.8541 24.715C23.8033 24.7024 23.7492 24.6886 23.6931 24.6752L22.6973 28.6674C22.6219 28.8548 22.4307 29.1359 21.9995 29.0292C22.0148 29.0513 20.8928 28.753 20.8928 28.753L20.1367 30.4961L22.1184 30.9901C22.487 31.0825 22.8483 31.1792 23.2041 31.2702L22.5739 33.8004L24.0949 34.1799L24.719 31.6765C25.1345 31.7893 25.5377 31.8933 25.9325 31.9914L25.3106 34.483L26.8334 34.8625L27.4635 32.337C30.0602 32.8284 32.0126 32.6302 32.8345 30.2816C33.4967 28.3906 32.8015 27.2999 31.4354 26.5887C32.4304 26.3592 33.1798 25.7048 33.3797 24.3529L33.3792 24.3526L33.3791 24.3527ZM29.8999 29.2314C29.4293 31.1224 26.2455 30.1002 25.2133 29.8439L26.0495 26.4917C27.0817 26.7494 30.3918 27.2594 29.9 29.2314H29.8999ZM30.3709 24.3253C29.9416 26.0453 27.2917 25.1715 26.4321 24.9572L27.1902 21.917C28.0498 22.1313 30.8181 22.5312 30.371 24.3253H30.3709Z" fill="#9C9DA9"/>
<mask id="path-3-outside-1" maskUnits="userSpaceOnUse" x="-0.578125" y="-0.152588" width="22" height="22" fill="black">
<rect fill="white" x="-0.578125" y="-0.152588" width="22" height="22"/>
<path d="M1.73975 12.9952C1.73973 12.9952 1.73972 12.9952 1.73972 12.9952C2.93859 17.804 7.80913 20.7306 12.6185 19.5314C17.4259 18.3326 20.3524 13.4617 19.153 8.65327C17.9547 3.84393 13.0842 0.917157 8.27627 2.11602C3.46727 3.31487 0.540899 8.18618 1.73982 12.9952C1.73983 12.9952 1.73979 12.9952 1.73977 12.9952L1.73977 12.9952C1.73976 12.9952 1.73975 12.9952 1.73975 12.9952Z"/>
</mask>
<path d="M1.73975 12.9952C1.73973 12.9952 1.73972 12.9952 1.73972 12.9952C2.93859 17.804 7.80913 20.7306 12.6185 19.5314C17.4259 18.3326 20.3524 13.4617 19.153 8.65327C17.9547 3.84393 13.0842 0.917157 8.27627 2.11602C3.46727 3.31487 0.540899 8.18618 1.73982 12.9952C1.73983 12.9952 1.73979 12.9952 1.73977 12.9952L1.73977 12.9952C1.73976 12.9952 1.73975 12.9952 1.73975 12.9952Z" fill="#0D121B"/>
<path d="M1.73975 12.9952C1.73973 12.9952 1.73972 12.9952 1.73972 12.9952C2.93859 17.804 7.80913 20.7306 12.6185 19.5314C17.4259 18.3326 20.3524 13.4617 19.153 8.65327C17.9547 3.84393 13.0842 0.917157 8.27627 2.11602C3.46727 3.31487 0.540899 8.18618 1.73982 12.9952C1.73983 12.9952 1.73979 12.9952 1.73977 12.9952L1.73977 12.9952C1.73976 12.9952 1.73975 12.9952 1.73975 12.9952Z" fill="black" fill-opacity="0.2"/>
<path d="M12.6185 19.5314L12.9403 20.8216L12.9402 20.8217L12.6185 19.5314ZM19.153 8.65327L17.8628 8.97509L17.8628 8.97477L19.153 8.65327ZM8.27627 2.11602L8.59799 3.40625L8.59792 3.40627L8.27627 2.11602ZM1.73982 12.9952L3.03007 12.6735L1.73982 12.9952ZM1.73977 12.9952L0.799496 13.9355L1.73977 12.9952ZM1.73977 12.9952L0.799494 13.9355L1.73977 12.9952ZM1.73972 12.9952L3.02997 12.6736L1.73972 12.9952ZM3.02997 12.6736C4.05117 16.7697 8.19996 19.2627 12.2968 18.2412L12.9402 20.8217C7.41831 22.1985 1.82602 18.8384 0.449471 13.3169L3.02997 12.6736ZM12.2968 18.2412C16.3915 17.22 18.8845 13.071 17.8628 8.97509L20.4433 8.33145C21.8204 13.8524 18.4603 19.4451 12.9403 20.8216L12.2968 18.2412ZM17.8628 8.97477C16.842 4.87804 12.6931 2.38512 8.59799 3.40625L7.95454 0.825778C13.4752 -0.550805 19.0674 2.80981 20.4433 8.33177L17.8628 8.97477ZM8.59792 3.40627C4.50169 4.42743 2.00876 8.57693 3.03007 12.6735L0.449568 13.3169C-0.92696 7.79544 2.43284 2.2023 7.95462 0.82576L8.59792 3.40627ZM0.799496 13.9355L0.799494 13.9355L2.68004 12.0549L2.68004 12.0549L0.799496 13.9355ZM3.03007 12.6735C3.18971 13.3139 2.85818 13.8775 2.41897 14.1384C1.97154 14.4043 1.28841 14.4244 0.799496 13.9355L2.68004 12.0549C2.19114 11.566 1.50805 11.5862 1.06064 11.852C0.621447 12.1129 0.28993 12.6765 0.449568 13.3169L3.03007 12.6735ZM0.799494 13.9355C1.04886 14.1849 1.38708 14.325 1.73975 14.325V11.6655C2.09242 11.6655 2.43066 11.8056 2.68004 12.0549L0.799494 13.9355ZM0.449471 13.3169C0.243763 12.4918 0.86067 11.6655 1.73975 11.6655V14.325C2.61879 14.325 3.23567 13.4987 3.02997 12.6736L0.449471 13.3169Z" fill="#1F2534" mask="url(#path-3-outside-1)"/>
<g filter="url(#filter0_d)">
<path d="M7.37954 14.4491H13.7681V12.6086H10.4552V12.5601L13.6519 8.49159V7.00947H7.50062V8.85H10.8281V8.89844L7.37954 13.0978V14.4491Z" fill="url(#paint1_linear)"/>
</g>
<defs>
<filter id="filter0_d" x="3.96908" y="7.00952" width="13.2082" height="14.2593" filterUnits="userSpaceOnUse" color-interpolation-filters="sRGB">
<feFlood flood-opacity="0" result="BackgroundImageFix"/>
<feColorMatrix in="SourceAlpha" type="matrix" values="0 0 0 0 0 0 0 0 0 0 0 0 0 0 0 0 0 0 127 0" result="hardAlpha"/>
<feOffset dy="3.40983"/>
<feGaussianBlur stdDeviation="1.70491"/>
<feColorMatrix type="matrix" values="0 0 0 0 0 0 0 0 0 0 0 0 0 0 0 0 0 0 0.25 0"/>
<feBlend mode="normal" in2="BackgroundImageFix" result="effect1_dropShadow"/>
<feBlend mode="normal" in="SourceGraphic" in2="effect1_dropShadow" result="shape"/>
</filter>
<linearGradient id="paint0_linear" x1="7.52734" y1="6.54834" x2="46.2327" y2="8.25962" gradientUnits="userSpaceOnUse">
<stop stop-color="#FFDFBD"/>
<stop offset="1" stop-color="#D0A7A8"/>
</linearGradient>
<linearGradient id="paint1_linear" x1="3.08203" y1="4.4491" x2="18.0119" y2="5.42198" gradientUnits="userSpaceOnUse">
<stop stop-color="#FFDFBD"/>
<stop offset="1" stop-color="#D0A7A8"/>
</linearGradient>
</defs>
</svg>
