<svg width="48" height="44" viewBox="0 0 48 44" fill="none" xmlns="http://www.w3.org/2000/svg">
<path d="M11.4328 29.6473C13.7953 39.1236 23.3932 44.8907 32.8706 42.5276C42.344 40.1651 48.1111 30.5666 45.7476 21.0911C43.3861 11.6138 33.7882 5.84628 24.3138 8.20875C14.8371 10.5712 9.07033 20.1708 11.4331 29.6475L11.4329 29.6473H11.4328Z" fill="#1F2534"/>
<path d="M11.4328 29.6473C13.7953 39.1236 23.3932 44.8907 32.8706 42.5276C42.344 40.1651 48.1111 30.5666 45.7476 21.0911C43.3861 11.6138 33.7882 5.84628 24.3138 8.20875C14.8371 10.5712 9.07033 20.1708 11.4331 29.6475L11.4329 29.6473H11.4328Z" stroke="url(#paint0_linear)" stroke-width="1.70491"/>
<path d="M28.6043 13.1239L28.7695 13.6851V29.9672L28.6043 30.132L21.0465 25.6645L28.6043 13.1239Z" fill="#9C9DA9"/>
<path d="M28.61 13.1239L36.168 25.6645L28.61 30.132V22.2291V13.1239Z" fill="#9C9DA9"/>
<path d="M28.6061 31.56L28.6992 31.6736V37.4735L28.6061 37.7453L21.0437 27.0948L28.6061 31.56Z" fill="#9C9DA9"/>
<path d="M28.61 37.7453V31.56L36.168 27.0948L28.61 37.7453Z" fill="#9C9DA9"/>
<path d="M28.6094 30.1296L21.0516 25.6621L28.6094 22.2267V30.1296Z" fill="#9C9DA9"/>
<path d="M36.168 25.6621L28.61 30.1296V22.2267L36.168 25.6621Z" fill="#9C9DA9"/>
<mask id="path-9-outside-1" maskUnits="userSpaceOnUse" x="-0.578125" y="0.124023" width="22" height="22" fill="black">
<rect fill="white" x="-0.578125" y="0.124023" width="22" height="22"/>
<path d="M1.73975 13.2718C1.73973 13.2718 1.73972 13.2718 1.73972 13.2719C2.93859 18.0806 7.80913 21.0072 12.6185 19.808C17.4259 18.6092 20.3524 13.7383 19.153 8.92988C17.9547 4.12054 13.0842 1.19377 8.27627 2.39263C3.46727 3.59148 0.540899 8.4628 1.73982 13.2718C1.73983 13.2718 1.73979 13.2718 1.73977 13.2718L1.73977 13.2718C1.73976 13.2718 1.73975 13.2718 1.73975 13.2718Z"/>
</mask>
<path d="M1.73975 13.2718C1.73973 13.2718 1.73972 13.2718 1.73972 13.2719C2.93859 18.0806 7.80913 21.0072 12.6185 19.808C17.4259 18.6092 20.3524 13.7383 19.153 8.92988C17.9547 4.12054 13.0842 1.19377 8.27627 2.39263C3.46727 3.59148 0.540899 8.4628 1.73982 13.2718C1.73983 13.2718 1.73979 13.2718 1.73977 13.2718L1.73977 13.2718C1.73976 13.2718 1.73975 13.2718 1.73975 13.2718Z" fill="#0D121B"/>
<path d="M1.73975 13.2718C1.73973 13.2718 1.73972 13.2718 1.73972 13.2719C2.93859 18.0806 7.80913 21.0072 12.6185 19.808C17.4259 18.6092 20.3524 13.7383 19.153 8.92988C17.9547 4.12054 13.0842 1.19377 8.27627 2.39263C3.46727 3.59148 0.540899 8.4628 1.73982 13.2718C1.73983 13.2718 1.73979 13.2718 1.73977 13.2718L1.73977 13.2718C1.73976 13.2718 1.73975 13.2718 1.73975 13.2718Z" fill="black" fill-opacity="0.2"/>
<path d="M12.6185 19.808L12.9403 21.0982L12.9402 21.0983L12.6185 19.808ZM19.153 8.92988L17.8628 9.25171L17.8628 9.25138L19.153 8.92988ZM8.27627 2.39263L8.59799 3.68286L8.59792 3.68288L8.27627 2.39263ZM1.73982 13.2718L3.03007 12.9501L1.73982 13.2718ZM1.73977 13.2718L0.799496 14.2121L1.73977 13.2718ZM1.73977 13.2718L0.799494 14.2121L1.73977 13.2718ZM1.73972 13.2719L3.02997 12.9502L1.73972 13.2719ZM3.02997 12.9502C4.05117 17.0463 8.19996 19.5393 12.2968 18.5178L12.9402 21.0983C7.41831 22.4751 1.82602 19.115 0.449471 13.5935L3.02997 12.9502ZM12.2968 18.5178C16.3915 17.4966 18.8845 13.3476 17.8628 9.25171L20.4433 8.60806C21.8204 14.129 18.4603 19.7217 12.9403 21.0982L12.2968 18.5178ZM17.8628 9.25138C16.842 5.15466 12.6931 2.66173 8.59799 3.68286L7.95454 1.10239C13.4752 -0.274194 19.0674 3.08642 20.4433 8.60838L17.8628 9.25138ZM8.59792 3.68288C4.50169 4.70404 2.00876 8.85354 3.03007 12.9501L0.449568 13.5935C-0.92696 8.07205 2.43284 2.47891 7.95462 1.10237L8.59792 3.68288ZM0.799496 14.2121L0.799494 14.2121L2.68004 12.3316L2.68004 12.3316L0.799496 14.2121ZM3.03007 12.9501C3.18971 13.5905 2.85818 14.1541 2.41897 14.4151C1.97154 14.6809 1.28841 14.701 0.799496 14.2121L2.68004 12.3316C2.19114 11.8427 1.50805 11.8628 1.06064 12.1286C0.621447 12.3895 0.28993 12.9531 0.449568 13.5935L3.03007 12.9501ZM0.799494 14.2121C1.04886 14.4615 1.38708 14.6016 1.73975 14.6016V11.9421C2.09242 11.9421 2.43066 12.0822 2.68004 12.3316L0.799494 14.2121ZM0.449471 13.5935C0.243763 12.7684 0.86067 11.9421 1.73975 11.9421V14.6016C2.61879 14.6016 3.23567 13.7753 3.02997 12.9502L0.449471 13.5935Z" fill="#1F2534" mask="url(#path-9-outside-1)"/>
<g filter="url(#filter0_d)">
<path d="M7.37954 14.7257H13.7681V12.8852H10.4552V12.8367L13.6519 8.7682V7.28608H7.50062V9.12662H10.8281V9.17505L7.37954 13.3744V14.7257Z" fill="url(#paint1_linear)"/>
</g>
<defs>
<filter id="filter0_d" x="3.96908" y="7.28613" width="13.2082" height="14.2593" filterUnits="userSpaceOnUse" color-interpolation-filters="sRGB">
<feFlood flood-opacity="0" result="BackgroundImageFix"/>
<feColorMatrix in="SourceAlpha" type="matrix" values="0 0 0 0 0 0 0 0 0 0 0 0 0 0 0 0 0 0 127 0" result="hardAlpha"/>
<feOffset dy="3.40983"/>
<feGaussianBlur stdDeviation="1.70491"/>
<feColorMatrix type="matrix" values="0 0 0 0 0 0 0 0 0 0 0 0 0 0 0 0 0 0 0.25 0"/>
<feBlend mode="normal" in2="BackgroundImageFix" result="effect1_dropShadow"/>
<feBlend mode="normal" in="SourceGraphic" in2="effect1_dropShadow" result="shape"/>
</filter>
<linearGradient id="paint0_linear" x1="46.2773" y1="7.67944" x2="10.9726" y2="9.24037" gradientUnits="userSpaceOnUse">
<stop stop-color="#FFDFBD"/>
<stop offset="1" stop-color="#D0A7A8"/>
</linearGradient>
<linearGradient id="paint1_linear" x1="3.08203" y1="4.72571" x2="18.0119" y2="5.69859" gradientUnits="userSpaceOnUse">
<stop stop-color="#FFDFBD"/>
<stop offset="1" stop-color="#D0A7A8"/>
</linearGradient>
</defs>
</svg>
