<svg width="49" height="49" viewBox="0 0 49 49" fill="none" xmlns="http://www.w3.org/2000/svg">
<path d="M46.6838 29.9716C43.6455 42.1588 31.3018 49.5757 19.1132 46.5366C6.92963 43.4982 -0.487256 31.1538 2.5524 18.9676C5.58938 6.77909 17.933 -0.638348 30.1179 2.39997C42.3056 5.43829 49.7221 17.7841 46.6834 29.9718L46.6837 29.9716H46.6838Z" stroke="#9C9DA9" stroke-width="2"/>
<path d="M9.62242 16.8826C9.69918 16.8547 9.77594 16.8338 9.81083 16.8268C12.2183 16.3034 16.7819 15.4382 19.5313 15.7173C19.7545 15.7382 19.9569 15.5847 19.9918 15.3684C20.0895 14.7473 20.3477 13.7634 20.5012 13.6239C20.6059 13.5332 20.7873 13.3378 21.213 13.6239C21.5758 13.8681 23.1598 15.4312 23.6413 15.9127C23.732 16.0034 23.8507 16.0452 23.9763 16.0313C24.3321 15.9964 25.1067 15.9476 25.644 16.0522C26.3558 16.1918 31.2125 18.9062 32.2173 20.0507C32.978 20.9229 32.9919 21.6207 32.957 21.9138C32.9431 22.0115 32.964 22.1092 33.0198 22.1929L35.2668 25.7657C35.3296 25.8634 35.3505 25.982 35.3156 26.0936C35.2458 26.3728 35.0644 26.8891 34.6597 27.2241C34.562 27.3008 34.4992 27.4195 34.4922 27.5451C34.4782 27.9219 34.4224 28.6965 34.2131 28.9128C33.9898 29.1361 33.2641 29.778 32.9361 30.0641C32.8384 30.1479 32.7895 30.2735 32.7965 30.3991C32.8175 30.8596 32.8384 31.9761 32.4965 32.1994C32.0708 32.4855 29.6424 32.6251 29.3563 32.1994L26.8931 29.7571C25.979 29.2198 24.9183 28.9128 23.7879 28.9128C21.9457 28.9128 20.2919 29.7222 19.1684 31.0062C19.0149 31.1527 18.8823 31.3132 18.7846 31.4807C18.7776 31.4877 18.7776 31.4947 18.7706 31.5016C18.0589 32.5065 17.6402 33.7276 17.6402 35.0465C17.6402 38.4378 20.3896 41.1872 23.7809 41.1872C32.7756 41.1872 40.0607 33.8951 40.0607 24.9074C40.0607 15.9196 32.7756 8.62061 23.7879 8.62061C17.71 8.62061 12.4136 11.9491 9.62242 16.8826C9.61544 16.8826 9.61544 16.8826 9.62242 16.8826Z" fill="#9C9DA9"/>
</svg>
